<svg width="24" height="24" viewBox="0 0 24 24" fill="none" xmlns="http://www.w3.org/2000/svg">
<path fill-rule="evenodd" clip-rule="evenodd" d="M12 2C6.47715 2 2 6.47715 2 12C2 13.5113 2.33527 14.9443 2.93548 16.2287L2.06724 20.3995C1.99384 20.7521 2.30605 21.0643 2.65865 20.9909L6.31701 20.2293C7.93082 21.3459 9.88902 22 12 22C17.5228 22 22 17.5228 22 12C22 6.47715 17.5228 2 12 2Z" fill="#246BEB"/>
<path d="M10.8343 14.7933V14.6548C10.8378 14.0121 10.8982 13.5007 11.0154 13.1207C11.1361 12.7408 11.3066 12.4354 11.5267 12.2046C11.7469 11.9702 12.015 11.7553 12.3311 11.56C12.5477 11.4251 12.7412 11.2777 12.9117 11.1179C13.0857 10.9546 13.2224 10.7734 13.3218 10.5746C13.4213 10.3722 13.471 10.1467 13.471 9.89809C13.471 9.61755 13.4053 9.3743 13.2739 9.16833C13.1425 8.96237 12.9649 8.80257 12.7412 8.68893C12.521 8.5753 12.2742 8.51848 12.0008 8.51848C11.7487 8.51848 11.509 8.57352 11.2817 8.68361C11.058 8.79014 10.8715 8.95349 10.7224 9.17366C10.5768 9.39028 10.4951 9.66549 10.4774 9.9993H8.58105C8.59881 9.32458 8.76216 8.75995 9.07111 8.30541C9.38361 7.85086 9.79554 7.50995 10.3069 7.28268C10.8218 7.05541 11.39 6.94177 12.0115 6.94177C12.6897 6.94177 13.2863 7.06074 13.8012 7.29866C14.3197 7.53659 14.7227 7.87572 15.0104 8.31606C15.3016 8.75285 15.4472 9.27132 15.4472 9.87146C15.4472 10.2763 15.3815 10.6385 15.2501 10.9581C15.1222 11.2777 14.9394 11.5618 14.7014 11.8104C14.4635 12.059 14.1812 12.2809 13.8545 12.4762C13.5669 12.6538 13.3307 12.8384 13.146 13.0302C12.9649 13.222 12.83 13.4475 12.7412 13.7067C12.656 13.9624 12.6116 14.2784 12.608 14.6548V14.7933H10.8343ZM11.7611 18.1172C11.4415 18.1172 11.1663 18.0036 10.9355 17.7763C10.7046 17.549 10.5892 17.272 10.5892 16.9453C10.5892 16.6257 10.7046 16.3523 10.9355 16.125C11.1663 15.8977 11.4415 15.7841 11.7611 15.7841C12.0771 15.7841 12.3506 15.8977 12.5814 16.125C12.8158 16.3523 12.933 16.6257 12.933 16.9453C12.933 17.1619 12.8779 17.359 12.7678 17.5366C12.6613 17.7141 12.5193 17.8562 12.3417 17.9627C12.1677 18.0657 11.9742 18.1172 11.7611 18.1172Z" fill="white"/>
</svg>
