<svg width="100%" height="100%" viewBox="0 0 25 24" fill="none" xmlns="http://www.w3.org/2000/svg">
<path d="M12.667 6.27273V17.7273M18.3943 12L6.93972 12M10.2124 21H15.1215C17.4127 21 18.5582 21 19.4333 20.5541C20.2031 20.1619 20.8289 19.5361 21.2211 18.7663C21.667 17.8912 21.667 16.7457 21.667 14.4545V9.54545C21.667 7.25433 21.667 6.10877 21.2211 5.23367C20.8289 4.46392 20.2031 3.83809 19.4333 3.44588C18.5582 3 17.4127 3 15.1215 3H10.2124C7.92132 3 6.77576 3 5.90067 3.44588C5.13091 3.83809 4.50508 4.46392 4.11287 5.23367C3.66699 6.10877 3.66699 7.25433 3.66699 9.54545V14.4545C3.66699 16.7457 3.66699 17.8912 4.11287 18.7663C4.50508 19.5361 5.13091 20.1619 5.90067 20.5541C6.77576 21 7.92132 21 10.2124 21ZM9.5579 17.7273H15.7761C16.6925 17.7273 17.1508 17.7273 17.5008 17.5489C17.8087 17.392 18.059 17.1417 18.2159 16.8338C18.3943 16.4838 18.3943 16.0255 18.3943 15.1091V8.89091C18.3943 7.97446 18.3943 7.51623 18.2159 7.1662C18.059 6.85829 17.8087 6.60796 17.5008 6.45108C17.1508 6.27273 16.6925 6.27273 15.7761 6.27273H9.5579C8.64145 6.27273 8.18323 6.27273 7.83319 6.45108C7.52529 6.60796 7.27496 6.85829 7.11807 7.1662C6.93972 7.51623 6.93972 7.97446 6.93972 8.89091V15.1091C6.93972 16.0255 6.93972 16.4838 7.11807 16.8338C7.27496 17.1417 7.52529 17.392 7.83319 17.5489C8.18323 17.7273 8.64145 17.7273 9.5579 17.7273Z" stroke="#222222" stroke-width="1.6" stroke-linecap="round"/>
</svg>
