<svg width="24" height="24" viewBox="0 0 24 24" fill="none" xmlns="http://www.w3.org/2000/svg">
<path d="M16.7532 11.5658C17.135 11.2476 17.1866 10.6801 16.8684 10.2983C16.5502 9.91642 15.9827 9.86483 15.6008 10.183L16.7532 11.5658ZM12.1995 14.189L11.6233 14.8804C11.9571 15.1586 12.4419 15.1586 12.7757 14.8804L12.1995 14.189ZM8.79816 10.183C8.41631 9.86483 7.8488 9.91642 7.5306 10.2983C7.21239 10.6801 7.26398 11.2476 7.64583 11.5658L8.79816 10.183ZM15.6008 10.183L11.6233 13.4976L12.7757 14.8804L16.7532 11.5658L15.6008 10.183ZM12.7757 13.4976L8.79816 10.183L7.64583 11.5658L11.6233 14.8804L12.7757 13.4976ZM20.1 12C20.1 16.4735 16.4735 20.1 12 20.1V21.9C17.4676 21.9 21.9 17.4676 21.9 12H20.1ZM12 20.1C7.52649 20.1 3.9 16.4735 3.9 12H2.1C2.1 17.4676 6.53238 21.9 12 21.9V20.1ZM3.9 12C3.9 7.52649 7.52649 3.9 12 3.9V2.1C6.53238 2.1 2.1 6.53238 2.1 12H3.9ZM12 3.9C16.4735 3.9 20.1 7.52649 20.1 12H21.9C21.9 6.53238 17.4676 2.1 12 2.1V3.9Z" fill="#2D2D2D"/>
</svg>
