<svg width="24" height="24" viewBox="0 0 24 24" fill="none" xmlns="http://www.w3.org/2000/svg">
<path d="M11 3C8.791 3 7 4.791 7 7H6C3.92 7 2.25501 8.596 2.06201 10.625C2.56801 10.798 9.34399 13.063 9.34399 13.062C10.779 13.541 13.221 13.541 14.656 13.062C14.656 13.062 19.838 11.332 21.969 10.625C21.784 8.588 20.085 7 18 7H17C17 4.791 15.209 3 13 3H11ZM11 5H13C14.105 5 15 5.895 15 7H9C9 5.895 9.895 5 11 5ZM2 12.719V17C2 19.209 3.791 21 6 21H18C20.209 21 22 19.209 22 17V12.719L15.281 14.969C13.436 15.584 10.564 15.584 8.71899 14.969L2 12.719Z" fill="#888888"/>
</svg>
