<svg width="100%" height="100%" viewBox="0 0 29 29" fill="none" xmlns="http://www.w3.org/2000/svg">
<path d="M13.0826 25C10.6763 25 8.7168 23.2479 8.7168 21.0938C8.7168 20.6625 9.10797 20.3125 9.58996 20.3125C10.0719 20.3125 10.4631 20.6625 10.4631 21.0938C10.4631 22.3866 11.639 23.4375 13.0826 23.4375C14.5262 23.4375 15.7021 22.3866 15.7021 21.0938C15.7021 20.6625 16.0933 20.3125 16.5753 20.3125C17.0572 20.3125 17.4484 20.6625 17.4484 21.0938C17.4484 23.2479 15.4891 25 13.0826 25Z" fill="currentColor"/>
<path d="M22.6883 21.875H3.47871C2.35528 21.875 1.44141 21.0573 1.44141 20.0521C1.44141 19.5187 1.70105 19.0136 2.15383 18.6666C2.18304 18.6438 2.21438 18.623 2.24699 18.6041C3.95601 17.2697 4.93405 15.35 4.93405 13.3228V10.4166C4.93405 6.39591 8.59084 3.125 13.0835 3.125C13.2698 3.125 13.4713 3.12805 13.6576 3.15628C14.1336 3.22704 14.4551 3.63026 14.3758 4.05521C14.2967 4.48017 13.8379 4.7678 13.3711 4.69685C13.2779 4.6833 13.1756 4.6875 13.0835 4.6875C9.55375 4.6875 6.68038 7.25727 6.68038 10.4166V13.3228C6.68038 15.8396 5.44738 18.2209 3.30071 19.8551C3.28323 19.8677 3.2681 19.8792 3.24934 19.8906C3.218 19.9261 3.18773 19.9802 3.18773 20.0521C3.18773 20.1937 3.32054 20.3125 3.47871 20.3125H22.6883C22.8467 20.3125 22.9795 20.1937 22.9795 20.0521C22.9795 19.9791 22.9492 19.9261 22.9166 19.8906C22.8991 19.8792 22.884 19.8677 22.8665 19.8551C20.7185 18.2198 19.4868 15.8396 19.4868 13.3228V12.1876C19.4868 11.7563 19.878 11.4063 20.36 11.4063C20.842 11.4063 21.2331 11.7563 21.2331 12.1876V13.3228C21.2331 15.3511 22.2122 17.2718 23.9236 18.6073C23.9549 18.626 23.9852 18.6459 24.0131 18.6678C24.4661 19.0136 24.7258 19.5187 24.7258 20.0521C24.7258 21.0573 23.8119 21.875 22.6883 21.875Z" fill="currentColor"/>
<path d="M21.2323 10.4166C18.0225 10.4166 15.4111 8.08029 15.4111 5.2084C15.4111 2.3365 18.0225 0 21.2323 0C24.442 0 27.0532 2.3365 27.0532 5.2084C27.0532 8.08029 24.442 10.4166 21.2323 10.4166ZM21.2323 1.5625C18.9852 1.5625 17.1575 3.19786 17.1575 5.2084C17.1575 7.21874 18.9852 8.8541 21.2323 8.8541C23.4791 8.8541 25.3069 7.21874 25.3069 5.2084C25.3069 3.19786 23.4791 1.5625 21.2323 1.5625Z" fill="currentColor"/>
</svg>
