<svg width="100%" height="100%" viewBox="0 0 24 24" fill="none" xmlns="http://www.w3.org/2000/svg">
<path d="M4.10557 18.1074L3.47052 17.6209H3.47052L4.10557 18.1074ZM5.26855 14.8377L4.46855 14.8279V14.8377H5.26855ZM5.29296 12.8609L6.09296 12.8708V12.8609H5.29296ZM19.9006 18.1233L20.5454 17.6496L20.5454 17.6496L19.9006 18.1233ZM18.7814 14.8377L17.9814 14.8273V14.8377H18.7814ZM18.8058 12.9588L19.6058 12.9692V12.9588H18.8058ZM4.74063 18.5939C5.40391 17.7282 6.06855 16.4285 6.06855 14.8377H4.46855C4.46855 15.9756 3.99081 16.9417 3.47052 17.6209L4.74063 18.5939ZM6.06849 14.8476L6.0929 12.8708L4.49302 12.851L4.46861 14.8279L6.06849 14.8476ZM20.5454 17.6496C20.0471 16.9715 19.5814 15.9947 19.5814 14.8377H17.9814C17.9814 16.4281 18.6187 17.7295 19.2559 18.5969L20.5454 17.6496ZM19.5814 14.8481L19.6058 12.9692L18.0059 12.9484L17.9815 14.8273L19.5814 14.8481ZM19.6058 12.9588C19.6058 8.78363 16.1942 5.41053 12 5.41053V7.01053C15.3233 7.01053 18.0058 9.68007 18.0058 12.9588H19.6058ZM19.4933 19.8395C20.1159 19.8395 20.5156 19.4055 20.6802 19.0221C20.8437 18.6413 20.8749 18.0982 20.5454 17.6496L19.2559 18.5969C19.2133 18.5389 19.2021 18.484 19.2003 18.4531C19.1986 18.4243 19.2039 18.405 19.21 18.3909C19.2158 18.3774 19.2323 18.3457 19.2757 18.3119C19.3244 18.2741 19.4014 18.2395 19.4933 18.2395V19.8395ZM6.09296 12.8609C6.09296 9.63621 8.73122 7.01053 12 7.01053V5.41053C7.86039 5.41053 4.49296 8.73978 4.49296 12.8609H6.09296ZM4.50763 18.2395C4.60182 18.2395 4.67987 18.2755 4.7282 18.3138C4.77108 18.3478 4.78648 18.3789 4.7914 18.3908C4.79659 18.4032 4.80153 18.4212 4.79957 18.4493C4.79746 18.4794 4.78553 18.5353 4.74063 18.5939L3.47052 17.6209C3.12653 18.0699 3.15442 18.6217 3.31432 19.0058C3.47511 19.3919 3.87479 19.8395 4.50763 19.8395V18.2395ZM19.4933 18.2395H4.50763V19.8395H19.4933V18.2395ZM14.4 19.0395C14.4 20.1752 13.3852 21.2 12 21.2V22.8C14.1494 22.8 16 21.1738 16 19.0395H14.4ZM12 21.2C10.6148 21.2 9.6 20.1752 9.6 19.0395H8C8 21.1738 9.85059 22.8 12 22.8V21.2ZM13.3333 4.10526C13.3333 4.81618 12.7464 5.41053 12 5.41053V7.01053C13.61 7.01053 14.9333 5.71975 14.9333 4.10526H13.3333ZM12 5.41053C11.2536 5.41053 10.6667 4.81618 10.6667 4.10526H9.06667C9.06667 5.71975 10.39 7.01053 12 7.01053V5.41053ZM10.6667 4.10526C10.6667 3.39434 11.2536 2.8 12 2.8V1.2C10.39 1.2 9.06667 2.49077 9.06667 4.10526H10.6667ZM12 2.8C12.7464 2.8 13.3333 3.39434 13.3333 4.10526H14.9333C14.9333 2.49077 13.61 1.2 12 1.2V2.8Z" fill="black" fill-opacity="0.65"/>
</svg>
