<svg width="100%" height="100%" viewBox="0 0 25 26" fill="none" xmlns="http://www.w3.org/2000/svg">
<path d="M5.80597 10.5116C5.80597 6.91535 8.57913 4 12 4C15.4209 4 18.194 6.91535 18.194 10.5116V13.329C18.194 14.4999 18.6829 15.6196 19.5463 16.4265C20.4952 17.3131 19.8566 18.8837 18.5472 18.8837H5.45275C4.14343 18.8837 3.50485 17.3131 4.45368 16.4265C5.31715 15.6196 5.80597 14.4999 5.80597 13.329V10.5116Z" fill="#868FA0"/>
<path d="M12.0001 24C13.6795 24 15.0409 22.7208 15.0409 21.1429C15.0409 21.1161 15.0405 21.0895 15.0397 21.0629C15.033 20.8324 14.8203 20.6648 14.5749 20.6622L9.43734 20.6075C9.19201 20.6048 8.9753 20.7679 8.96307 20.9981C8.96052 21.0461 8.95923 21.0943 8.95923 21.1429C8.95923 22.7208 10.3207 24 12.0001 24Z" fill="#868FA0"/>
<g filter="url(#filter0_dd_470_1110)">
<circle cx="19" cy="6" r="4" fill="#5E5ADB"/>
</g>
<defs>
<filter id="filter0_dd_470_1110" x="13" y="0" width="12" height="13" filterUnits="userSpaceOnUse" color-interpolation-filters="sRGB">
<feFlood flood-opacity="0" result="BackgroundImageFix"/>
<feColorMatrix in="SourceAlpha" type="matrix" values="0 0 0 0 0 0 0 0 0 0 0 0 0 0 0 0 0 0 127 0" result="hardAlpha"/>
<feMorphology radius="2" operator="dilate" in="SourceAlpha" result="effect1_dropShadow_470_1110"/>
<feOffset/>
<feColorMatrix type="matrix" values="0 0 0 0 0.968627 0 0 0 0 0.975163 0 0 0 0 0.988235 0 0 0 1 0"/>
<feBlend mode="normal" in2="BackgroundImageFix" result="effect1_dropShadow_470_1110"/>
<feColorMatrix in="SourceAlpha" type="matrix" values="0 0 0 0 0 0 0 0 0 0 0 0 0 0 0 0 0 0 127 0" result="hardAlpha"/>
<feOffset dy="1"/>
<feGaussianBlur stdDeviation="1"/>
<feColorMatrix type="matrix" values="0 0 0 0 0 0 0 0 0 0 0 0 0 0 0 0 0 0 0.25 0"/>
<feBlend mode="normal" in2="effect1_dropShadow_470_1110" result="effect2_dropShadow_470_1110"/>
<feBlend mode="normal" in="SourceGraphic" in2="effect2_dropShadow_470_1110" result="shape"/>
</filter>
</defs>
</svg>
