<svg width="16" height="16" viewBox="0 0 16 16" fill="none" xmlns="http://www.w3.org/2000/svg">
<path d="M2.66667 1.83334H13.3333C13.5101 1.83334 13.6797 1.90358 13.8047 2.02861C13.9298 2.15363 14 2.3232 14 2.50001V14.5C14 14.6768 13.9298 14.8464 13.8047 14.9714C13.6797 15.0964 13.5101 15.1667 13.3333 15.1667H2.66667C2.48986 15.1667 2.32029 15.0964 2.19526 14.9714C2.07024 14.8464 2 14.6768 2 14.5V2.50001C2 2.3232 2.07024 2.15363 2.19526 2.02861C2.32029 1.90358 2.48986 1.83334 2.66667 1.83334ZM3.33333 3.16668V13.8333H12.6667V3.16668H3.33333ZM4.66667 4.50001H11.3333V7.16668H4.66667V4.50001ZM4.66667 8.50001H6V9.83334H4.66667V8.50001ZM4.66667 11.1667H6V12.5H4.66667V11.1667ZM7.33333 8.50001H8.66667V9.83334H7.33333V8.50001ZM7.33333 11.1667H8.66667V12.5H7.33333V11.1667ZM10 8.50001H11.3333V12.5H10V8.50001Z" fill="white"/>
</svg>
