<svg width="100%" height="100%" viewBox="0 0 20 19" fill="none" xmlns="http://www.w3.org/2000/svg">
<path d="M1.62476 2.12494H2.37476M1.62476 2.87494H2.37476M8 2.5H19M1.62476 9.12494H2.37476M1.62476 9.87494H2.37476M1.62476 16.1249H2.37476M1.62476 16.8749H2.37476M8 9.5H19M8 16.5H19M3 2.5C3 3.05228 2.55228 3.5 2 3.5C1.44772 3.5 1 3.05228 1 2.5C1 1.94772 1.44772 1.5 2 1.5C2.55228 1.5 3 1.94772 3 2.5ZM3 9.5C3 10.0523 2.55228 10.5 2 10.5C1.44772 10.5 1 10.0523 1 9.5C1 8.94772 1.44772 8.5 2 8.5C2.55228 8.5 3 8.94772 3 9.5ZM3 16.5C3 17.0523 2.55228 17.5 2 17.5C1.44772 17.5 1 17.0523 1 16.5C1 15.9477 1.44772 15.5 2 15.5C2.55228 15.5 3 15.9477 3 16.5Z" stroke="#222222" stroke-width="1.6" stroke-linecap="round"/>
</svg>
