<svg width="25" height="24" viewBox="0 0 25 24" fill="none" xmlns="http://www.w3.org/2000/svg">
<path d="M11.5 3C9.291 3 7.5 4.791 7.5 7H6.5C4.42 7 2.75501 8.596 2.56201 10.625C3.06801 10.798 9.84399 13.063 9.84399 13.062C11.279 13.541 13.721 13.541 15.156 13.062C15.156 13.062 20.338 11.332 22.469 10.625C22.284 8.588 20.585 7 18.5 7H17.5C17.5 4.791 15.709 3 13.5 3H11.5ZM11.5 5H13.5C14.605 5 15.5 5.895 15.5 7H9.5C9.5 5.895 10.395 5 11.5 5ZM2.5 12.719V17C2.5 19.209 4.291 21 6.5 21H18.5C20.709 21 22.5 19.209 22.5 17V12.719L15.781 14.969C13.936 15.584 11.064 15.584 9.21899 14.969L2.5 12.719Z" fill="#888888"/>
</svg>
