<svg width="100%" height="100%" viewBox="0 0 20 21" fill="none" xmlns="http://www.w3.org/2000/svg">
<path d="M9.99829 1.86364C8.35138 1.86342 6.73872 2.33397 5.35035 3.21983C3.96197 4.10569 2.85574 5.36995 2.162 6.86364H4.31834C4.49917 6.86364 4.67259 6.93547 4.80046 7.06334C4.92832 7.1912 5.00016 7.36463 5.00016 7.54546C5.00016 7.72628 4.92832 7.89971 4.80046 8.02757C4.67259 8.15544 4.49917 8.22727 4.31834 8.22727H0.909289C0.668186 8.22727 0.436957 8.13149 0.266471 7.96101C0.0959855 7.79052 0.00020764 7.55929 0.00020764 7.31818V3.90909C0.000207642 3.72826 0.0720411 3.55484 0.199905 3.42697C0.32777 3.29911 0.501191 3.22727 0.682019 3.22727C0.862846 3.22727 1.03627 3.29911 1.16413 3.42697C1.292 3.55484 1.36383 3.72826 1.36383 3.90909V5.45182C2.24518 3.94418 3.50608 2.69371 5.02098 1.82492C6.53589 0.956128 8.25194 0.499328 9.99829 0.500001C15.5219 0.500001 20 4.97727 20 10.5C20 16.0227 15.5219 20.5 9.99829 20.5C4.55834 20.5 0.132934 16.1573 0.00020764 10.75C-0.00425277 10.5692 0.0633029 10.394 0.188013 10.263C0.312724 10.1319 0.484373 10.0558 0.665201 10.0514C0.846028 10.0469 1.02122 10.1145 1.15224 10.2392C1.28326 10.3639 1.35937 10.5355 1.36383 10.7164C1.42028 12.9689 2.35478 15.1101 3.96793 16.6832C5.58107 18.2562 7.74512 19.1366 9.99829 19.1364C14.7691 19.1364 18.6364 15.27 18.6364 10.5C18.6364 5.73 14.7691 1.86364 9.99829 1.86364Z" fill="currentColor"/>
<path d="M10.4544 6.18182C10.4544 6.00099 10.3826 5.82757 10.2547 5.6997C10.1269 5.57183 9.95345 5.5 9.77263 5.5C9.5918 5.5 9.41838 5.57183 9.29051 5.6997C9.16265 5.82757 9.09081 6.00099 9.09081 6.18182V11.1818C9.09081 11.4273 9.22172 11.6527 9.43445 11.7736L12.6162 13.5918C12.7729 13.6765 12.9564 13.6965 13.1276 13.6476C13.2988 13.5987 13.4441 13.4848 13.5324 13.3303C13.6207 13.1757 13.6451 12.9927 13.6003 12.8204C13.5555 12.6481 13.445 12.5001 13.2926 12.4082L10.4544 10.7864V6.18182Z" fill="currentColor"/>
</svg>
