<svg width="16" height="16" viewBox="0 0 16 16" fill="none" xmlns="http://www.w3.org/2000/svg">
<path d="M6.52661 11L5.45621 10.7447L5.89246 9.29593C5.23945 9.08176 4.63255 8.76965 4.09812 8.37315L2.90466 9.43493L2.12029 8.73743L3.3143 7.67614C2.64029 6.95831 2.18741 6.09716 2 5.17696L3.09091 5C3.51164 7.07131 5.54934 8.64279 8 8.64279C10.4501 8.64279 12.4884 7.07131 12.9091 5L14 5.17647C13.8128 6.09679 13.3602 6.95812 12.6863 7.67614L13.8797 8.73743L13.0953 9.43493L11.9019 8.37315C11.3675 8.76965 10.7605 9.08176 10.1075 9.29593L10.5438 10.7452L9.47339 11L9.03659 9.55077C8.35053 9.65531 7.64947 9.65531 6.96342 9.55077L6.52661 11Z" fill="black" fill-opacity="0.85"/>
</svg>
