<svg width="25" height="24" viewBox="0 0 25 24" fill="none" xmlns="http://www.w3.org/2000/svg">
<path fill-rule="evenodd" clip-rule="evenodd" d="M8.9587 2.19696C8.68287 1.93435 8.24951 1.93435 7.97367 2.19696L2.72177 7.19696C2.58015 7.33177 2.5 7.51876 2.5 7.71429V21.2857C2.5 21.6801 2.8198 22 3.21429 22H7.03761V19.1429C7.03761 18.3539 7.67721 17.7143 8.46619 17.7143C9.25517 17.7143 9.89476 18.3539 9.89476 19.1429V22H13.7181C14.1126 22 14.4324 21.6801 14.4324 21.2857V7.71429C14.4324 7.51876 14.3522 7.33177 14.2106 7.19696L8.9587 2.19696ZM16.4552 11.2857C16.4552 10.8912 16.775 10.5714 17.1694 10.5714H21.7857C22.1801 10.5714 22.5 10.8912 22.5 11.2857V21.2857C22.5 21.6801 22.1801 22 21.7857 22H17.1694C16.775 22 16.4552 21.6801 16.4552 21.2857V11.2857ZM5.60386 13.09C5.60386 12.5969 6.0036 12.1971 6.49671 12.1971H10.4356C10.9288 12.1971 11.3285 12.5969 11.3285 13.09C11.3285 13.5831 10.9288 13.9828 10.4356 13.9828H6.49671C6.0036 13.9828 5.60386 13.5831 5.60386 13.09ZM6.49671 8.47233C6.0036 8.47233 5.60386 8.87207 5.60386 9.36519C5.60386 9.8583 6.0036 10.258 6.49671 10.258H10.4356C10.9288 10.258 11.3285 9.8583 11.3285 9.36519C11.3285 8.87207 10.9288 8.47233 10.4356 8.47233H6.49671Z" fill="#888888"/>
</svg>
