<svg width="100%" height="100%" viewBox="0 0 25 25" fill="none" xmlns="http://www.w3.org/2000/svg">
<path d="M8.46606 12L24.1373 10.409M14.5914 0.863069L13.0004 16.5343M7.43192 14.3865C6.1139 15.7045 3.97697 15.7045 2.65895 14.3865C1.34093 13.0685 1.34093 10.9315 2.65895 9.61351C3.97697 8.29549 6.1139 8.29549 7.43192 9.61351C8.74994 10.9315 8.74994 13.0685 7.43192 14.3865ZM15.3869 22.3414C14.0688 23.6595 11.9319 23.6595 10.6139 22.3414C9.29588 21.0234 9.29588 18.8865 10.6139 17.5685C11.9319 16.2504 14.0688 16.2504 15.3869 17.5685C16.7049 18.8865 16.7049 21.0234 15.3869 22.3414Z" stroke="#222222" stroke-width="1.6" stroke-linecap="round" stroke-linejoin="round"/>
</svg>
