<svg width="24" height="24" viewBox="0 0 24 24" fill="none" xmlns="http://www.w3.org/2000/svg">

<rect x="3" y="3" width="8" height="8" rx="1" stroke="currentColor" stroke-width="1"/>
<rect x="3" y="13" width="8" height="8" rx="1" stroke="currentColor" stroke-width="1"/>
<rect x="13" y="3" width="8" height="8" rx="1" stroke="currentColor" stroke-width="1"/>
<rect x="13" y="13" width="8" height="8" rx="1" stroke="currentColor" stroke-width="1"/>

<mask id="path-1-inside-1_530_483" fill="white">
<rect x="3" y="3" width="8" height="8" rx="1"/>
</mask>
<rect x="3" y="3" width="8" height="8" rx="1" stroke="currentColor" stroke-width="2.6" mask="url(#path-1-inside-1_530_483)"/>
<mask id="path-2-inside-2_530_483" fill="white">
<rect x="3" y="13" width="8" height="8" rx="1"/>
</mask>
<rect x="3" y="13" width="8" height="8" rx="1" stroke="currentColor" stroke-width="2.6" mask="url(#path-2-inside-2_530_483)"/>
<mask id="path-3-inside-3_530_483" fill="white">
<rect x="13" y="3" width="8" height="8" rx="1"/>
</mask>
<rect x="13" y="3" width="8" height="8" rx="1" stroke="currentColor" stroke-width="2.6" mask="url(#path-3-inside-3_530_483)"/>
<mask id="path-4-inside-4_530_483" fill="white">
<rect x="13" y="13" width="8" height="8" rx="1"/>
</mask>
<rect x="13" y="13" width="8" height="8" rx="1" stroke="currentColor" stroke-width="2.6" mask="url(#path-4-inside-4_530_483)"/>
</svg>
