<svg width="100%" height="100%" viewBox="0 0 24 24" fill="none" xmlns="http://www.w3.org/2000/svg">
<path d="M6.6 12C6.6 12.9941 5.79411 13.8 4.8 13.8C3.80589 13.8 3 12.9941 3 12C3 11.0059 3.80589 10.2 4.8 10.2C5.79411 10.2 6.6 11.0059 6.6 12ZM6.6 12H17.4M17.4 12C17.4 12.9941 18.2059 13.8 19.2 13.8C20.1941 13.8 21 12.9941 21 12C21 11.0059 20.1941 10.2 19.2 10.2C18.2059 10.2 17.4 11.0059 17.4 12ZM17.4 4.8C17.4 5.79411 18.2059 6.6 19.2 6.6C20.1941 6.6 21 5.79411 21 4.8C21 3.80589 20.1941 3 19.2 3C18.2059 3 17.4 3.80589 17.4 4.8ZM17.4 4.8H12.225C11.7279 4.8 11.325 5.20294 11.325 5.7V18.3C11.325 18.7971 11.7279 19.2 12.225 19.2H17.4M17.4 19.2C17.4 20.1941 18.2059 21 19.2 21C20.1941 21 21 20.1941 21 19.2C21 18.2059 20.1941 17.4 19.2 17.4C18.2059 17.4 17.4 18.2059 17.4 19.2Z" stroke="currentColor" stroke-width="1.8" stroke-linecap="round"/>
</svg>
