<svg width="24" height="24" viewBox="0 0 24 24" fill="none" xmlns="http://www.w3.org/2000/svg">
<path d="M19.5858 3H4.41421C3.63316 3 3 3.63317 3 4.41421C3 4.78929 3.149 5.149 3.41421 5.41421L8.41421 10.4142C8.78929 10.7893 9 11.298 9 11.8284V16.7639C9 17.5215 9.428 18.214 10.1056 18.5528L14.2764 20.6382C14.6088 20.8044 15 20.5627 15 20.191V11.8284C15 11.298 15.2107 10.7893 15.5858 10.4142L20.5858 5.41421C20.851 5.149 21 4.78929 21 4.41421C21 3.63317 20.3668 3 19.5858 3Z" stroke="#222222" stroke-width="1.6" stroke-linecap="round"/>
</svg>
