<svg width="100%" height="100%" viewBox="0 0 39 32" fill="none" xmlns="http://www.w3.org/2000/svg">
<path d="M33.7105 13.3685V6.7896C33.7105 6.23731 33.2628 5.7896 32.7105 5.7896H18.9668C18.7016 5.7896 18.4473 5.68424 18.2597 5.4967L15.0561 2.29302C14.8685 2.10548 14.6142 2.00012 14.3489 2.00012H2.5C1.94772 2.00012 1.5 2.44784 1.5 3.00012V29.4212C1.5 29.9735 1.94772 30.4212 2.5 30.4212H6.18421C6.73649 30.4212 7.18421 29.9735 7.18421 29.4212V28.7078C7.18421 28.5879 7.20578 28.4689 7.24788 28.3567L12.6251 14.0174C12.7715 13.6271 13.1446 13.3685 13.5614 13.3685H36.1126C36.7951 13.3685 37.2771 14.0372 37.0613 14.6848L32.0437 29.7374C31.9076 30.1458 31.5255 30.4212 31.095 30.4212H5.28947" stroke="#4880FF" stroke-width="3" stroke-linecap="round" stroke-linejoin="round"/>
</svg>
