<svg width="25" height="24" viewBox="0 0 25 24" fill="none" xmlns="http://www.w3.org/2000/svg">
<path d="M16 3.00024C13.5147 3.00024 11.5 5.01524 11.5 7.50024C11.5 9.98524 13.5147 12.0002 16 12.0002C18.4853 12.0002 20.5 9.98524 20.5 7.50024C20.5 5.01524 18.4853 3.00024 16 3.00024ZM8.5 4.00024C6.2909 4.00024 4.5 5.79124 4.5 8.00024C4.5 10.2092 6.2909 12.0002 8.5 12.0002C9.3294 12.0002 10.0865 11.7723 10.7528 11.3063C9.044 8.76627 9.2862 6.33424 10.2175 4.37524C9.6856 4.12324 9.1014 4.00024 8.5 4.00024ZM5.5625 13.3442C3.7284 14.1012 2.5 15.9562 2.5 18.0002V20.0002C2.5 20.5522 2.9477 21.0002 3.5 21.0002L7.6528 21.0023C7.4188 20.2423 7.4876 19.0102 7.503 18.0132C7.5355 15.8962 8.411 14.3862 8.7539 13.9882C8.1237 13.9832 7.3674 13.8302 6.8125 13.5942C6.6785 13.5372 6.6007 13.4922 6.3438 13.3752C6.0919 13.2602 5.8183 13.2382 5.5625 13.3442ZM12.5625 13.3442C10.7284 14.1012 9.5 15.9562 9.5 18.0002V20.0002C9.5 20.5522 9.9477 21.0002 10.5 21.0002H21.5C22.0523 21.0002 22.5 20.5522 22.5 20.0002V18.0002C22.5 16.0042 21.2648 14.1943 19.4375 13.4062C19.1803 13.2952 18.8806 13.2922 18.625 13.4062C17.7402 13.8033 16.8782 14.0002 16 14.0002C15.1248 14.0002 14.2598 13.7922 13.3438 13.3752C13.0919 13.2602 12.8183 13.2382 12.5625 13.3442Z" fill="#888888"/>
</svg>
