<svg width="100%" height="100%" viewBox="0 0 49 48" fill="none" xmlns="http://www.w3.org/2000/svg">
<path d="M41.9939 20.9112L41.9845 20.8737L36.7252 7.50962C36.4908 6.75493 35.7923 6.23462 35.0002 6.23462H13.6814C12.8845 6.23462 12.1767 6.76431 11.9517 7.52837L7.03453 20.7565L7.02047 20.7893L7.01109 20.8268C6.95016 21.0565 6.93141 21.2909 6.96422 21.5206C6.95953 21.5956 6.95484 21.6706 6.95484 21.7456V38.8971C6.95608 39.6526 7.25675 40.3768 7.79096 40.911C8.32517 41.4452 9.04936 41.7459 9.80484 41.7471H39.2048C40.7752 41.7471 42.0548 40.4674 42.0595 38.8971V21.7456C42.0595 21.6846 42.0595 21.6237 42.0548 21.5721C42.0736 21.3424 42.0548 21.1221 41.9939 20.9112ZM28.1283 18.8956L28.1142 19.6315C28.0767 21.7362 26.6236 23.1518 24.5002 23.1518C23.4642 23.1518 22.5736 22.819 21.9314 22.1862C21.2892 21.5534 20.9377 20.6721 20.9189 19.6315L20.9048 18.8956H11.258L14.9845 9.83462H33.697L37.5267 18.8956H28.1283ZM10.5502 22.4956H17.9236C19.0627 25.1721 21.4861 26.7518 24.5048 26.7518C26.0845 26.7518 27.5517 26.3112 28.7377 25.4768C29.7783 24.7456 30.5892 23.7237 31.1142 22.4956H38.4502V38.1471H10.5502V22.4956Z" fill="current"/>
</svg>
