<svg width="24" height="24" viewBox="0 0 24 24" fill="none" xmlns="http://www.w3.org/2000/svg">
<path d="M8 8H3.6C3.03995 8 2.75992 8 2.54601 8.10899C2.35785 8.20487 2.20487 8.35785 2.10899 8.54601C2 8.75992 2 9.03995 2 9.6V20.4C2 20.9601 2 21.2401 2.10899 21.454C2.20487 21.6422 2.35785 21.7951 2.54601 21.891C2.75992 22 3.03995 22 3.6 22H8M8 22H14M8 22L8 5.6C8 5.03995 8 4.75992 8.10899 4.54601C8.20487 4.35785 8.35785 4.20487 8.54601 4.10899C8.75992 4 9.03995 4 9.6 4L12.4 4C12.9601 4 13.2401 4 13.454 4.10899C13.6422 4.20487 13.7951 4.35785 13.891 4.54601C14 4.75992 14 5.03995 14 5.6V22M14 12H18.4C18.9601 12 19.2401 12 19.454 12.109C19.6422 12.2049 19.7951 12.3578 19.891 12.546C20 12.7599 20 13.0399 20 13.6V20.4C20 20.96 20 21.2401 19.891 21.454C19.7951 21.6422 19.6422 21.7951 19.454 21.891C19.2401 22 18.96 22 18.4 22H14" stroke="currentColor" stroke-width="1.8" stroke-linecap="round" stroke-linejoin="round"/>
</svg>
