<svg width="100%" height="100%" viewBox="0 0 24 24" fill="none" xmlns="http://www.w3.org/2000/svg">
<path d="M15.2 12C15.2 13.7674 13.7674 15.2 12 15.2C10.2326 15.2 8.8 13.7674 8.8 12C8.8 10.2326 10.2326 8.8 12 8.8C13.7674 8.8 15.2 10.2326 15.2 12Z" stroke="current" stroke-width="1.6" stroke-linecap="round" stroke-linejoin="round"/>
<path d="M16.2659 18.9956L16.2659 18.9956C16.2659 18.9956 16.2659 18.9956 16.2659 18.9956C16.5822 19.2793 17.0652 19.2662 17.3657 18.9657L18.9657 17.3657C19.2601 17.0713 19.2795 16.6003 19.0102 16.2827L18.1386 15.2546L18.6779 13.9524L20.2014 13.556C20.5539 13.4643 20.7999 13.146 20.7999 12.7818L20.8 11.2C20.8 10.8341 20.5518 10.5149 20.1972 10.4247L18.6836 10.0398L18.1454 8.74013L19.0109 7.71654C19.2795 7.3989 19.2598 6.92844 18.9657 6.63431L17.3657 5.03431C17.0704 4.73905 16.5977 4.72054 16.2803 4.99182L15.2638 5.86049L13.9188 5.30738L13.522 3.79675C13.4296 3.44513 13.1118 3.2 12.7482 3.2H11.1848C10.8214 3.2 10.5036 3.44495 10.4111 3.7964L10.0058 5.33663L8.71798 5.87949L7.73167 5.00223C7.4151 4.72066 6.9339 4.73473 6.63431 5.03431L5.03431 6.63431C4.74444 6.92419 4.72059 7.38629 4.9791 7.70446L5.8433 8.76815L5.31295 10.0721L3.81818 10.4209C3.45613 10.5054 3.2 10.8282 3.2 11.2V12.8C3.2 13.1607 3.44136 13.4768 3.78931 13.5718L5.33485 13.9937L5.87907 15.2847L5.00284 16.2677C4.72068 16.5842 4.73448 17.0659 5.03431 17.3657L6.63431 18.9657C6.92452 19.2559 7.38725 19.2794 7.70539 19.0201L8.76908 18.1533L10.0406 18.6764L10.4244 20.1959C10.5141 20.5511 10.8336 20.8 11.2 20.8H12.8C13.1662 20.8 13.4856 20.5514 13.5755 20.1964L13.9606 18.6761L15.2745 18.132C15.4067 18.2428 15.5584 18.373 15.7093 18.5044C15.8593 18.6349 15.9987 18.7579 16.1007 18.8484L16.2218 18.9562L16.2547 18.9856L16.2632 18.9932L16.2653 18.995L16.2658 18.9955L16.2659 18.9956Z" stroke="current" stroke-width="1.6" stroke-linecap="round" stroke-linejoin="round"/>
</svg>
