<svg width="24" height="24" viewBox="0 0 24 24" fill="none" xmlns="http://www.w3.org/2000/svg">
<path fill-rule="evenodd" clip-rule="evenodd" d="M18.134 16.7198C18.4964 16.5243 18.8396 16.3175 19.1611 16.1031C20.076 15.4934 20.837 14.8096 21.3784 14.1322C21.898 13.4819 22.2999 12.731 22.2999 12C22.2999 11.2689 21.898 10.518 21.3784 9.86771C20.837 9.19029 20.076 8.50654 19.1611 7.89676C17.3324 6.67789 14.8055 5.69995 12 5.69995C10.5107 5.69995 9.10001 5.9755 7.83057 6.41636L9.10862 7.69441C10.0163 7.44652 10.9895 7.29995 12 7.29995C14.4411 7.29995 16.6642 8.15534 18.2738 9.22814C19.0781 9.7642 19.7083 10.3409 20.1284 10.8666C20.5702 11.4194 20.6999 11.8143 20.6999 12C20.6999 12.1856 20.5702 12.5805 20.1284 13.1333C19.7083 13.659 19.0781 14.2357 18.2738 14.7718C17.868 15.0422 17.4232 15.2989 16.9457 15.5315L18.134 16.7198ZM15.8545 14.4402C16.325 13.7417 16.6 12.9051 16.6 12C16.6 9.50639 14.5133 7.53328 12 7.53328C11.1259 7.53328 10.3034 7.77193 9.60234 8.18812L10.7895 9.37529C11.1579 9.21999 11.5667 9.13328 12 9.13328C13.684 9.13328 15 10.4434 15 12C15 12.4541 14.8879 12.8873 14.6874 13.2731L15.8545 14.4402ZM13.2104 14.6246L14.3976 15.8118C13.6965 16.228 12.874 16.4666 12 16.4666C9.48661 16.4666 7.39995 14.4935 7.39995 12C7.39995 11.0948 7.67492 10.2582 8.14544 9.55966L9.31254 10.7268C9.112 11.1126 8.99995 11.5458 8.99995 12C8.99995 13.5565 10.3159 14.8666 12 14.8666C12.4332 14.8666 12.842 14.7799 13.2104 14.6246ZM7.05419 8.46841C6.57673 8.70102 6.13193 8.95767 5.72612 9.22814C4.92184 9.7642 4.29157 10.3409 3.87147 10.8666C3.42966 11.4194 3.29995 11.8143 3.29995 12C3.29995 12.1856 3.42966 12.5805 3.87147 13.1333C4.29157 13.659 4.92184 14.2357 5.72612 14.7718C7.33571 15.8446 9.55884 16.7 12 16.7C13.0104 16.7 13.9836 16.5534 14.8913 16.3055L16.1693 17.5835C14.8999 18.0244 13.4892 18.3 12 18.3C9.19436 18.3 6.66749 17.322 4.83875 16.1031C3.92387 15.4934 3.1629 14.8096 2.62155 14.1322C2.10191 13.4819 1.69995 12.731 1.69995 12C1.69995 11.2689 2.10191 10.518 2.62155 9.86771C3.1629 9.19029 3.92387 8.50654 4.83875 7.89676C5.16032 7.68244 5.50347 7.47556 5.86593 7.28014L7.05419 8.46841Z" fill="#2D2D2D"/>
<path d="M4 4L20 20" stroke="#2D2D2D" stroke-width="1.6"/>
</svg>
