<svg width="24" height="24" viewBox="0 0 24 24" fill="none" xmlns="http://www.w3.org/2000/svg">
<path d="M8.66667 22L8.66667 2M2 16.6667L2 7.33333C2 5.46649 2 4.53307 2.36331 3.82003C2.68289 3.19282 3.19282 2.68289 3.82003 2.36331C4.53307 2 5.46649 2 7.33333 2L16.6667 2C18.5335 2 19.4669 2 20.18 2.36331C20.8072 2.68289 21.3171 3.19282 21.6367 3.82003C22 4.53307 22 5.46649 22 7.33333L22 16.6667C22 18.5335 22 19.4669 21.6367 20.18C21.3171 20.8072 20.8072 21.3171 20.18 21.6367C19.4669 22 18.5335 22 16.6667 22L7.33333 22C5.46649 22 4.53307 22 3.82003 21.6367C3.19282 21.3171 2.68289 20.8072 2.36331 20.18C2 19.4669 2 18.5335 2 16.6667Z" stroke="#2D2D2D" stroke-width="1.8" stroke-linecap="round" stroke-linejoin="round"/>
</svg>
