<svg width="24" height="24" viewBox="0 0 24 24" fill="none" xmlns="http://www.w3.org/2000/svg">
<path d="M9.05882 17V19.3333C9.05882 19.9522 9.30672 20.5457 9.74798 20.9832C10.1892 21.4208 10.7877 21.6667 11.4118 21.6667H19.6471C20.2711 21.6667 20.8696 21.4208 21.3108 20.9832C21.7521 20.5457 22 19.9522 22 19.3333L22 5.33333C22 4.7145 21.7521 4.121 21.3108 3.68342C20.8696 3.24583 20.2711 3 19.6471 3L11.4118 3C10.7877 3 10.1892 3.24583 9.74799 3.68342C9.30672 4.121 9.05882 4.71449 9.05882 5.33333V7.66667M16.1176 12.3333L2 12.3333M2 12.3333L5.52941 15.8333M2 12.3333L5.52941 8.83333" stroke="#2D2D2D" stroke-width="1.8" stroke-linecap="round" stroke-linejoin="round"/>
</svg>
