<svg width="24" height="24" viewBox="0 0 24 24" fill="none" xmlns="http://www.w3.org/2000/svg">
<path d="M14.9412 7L14.9412 4.66667C14.9412 4.04783 14.6933 3.45433 14.252 3.01675C13.8108 2.57916 13.2123 2.33333 12.5882 2.33333L4.35295 2.33333C3.72891 2.33333 3.13043 2.57916 2.68916 3.01675C2.2479 3.45433 2 4.04782 2 4.66666L2 18.6667C2 19.2855 2.2479 19.879 2.68916 20.3166C3.13042 20.7542 3.7289 21 4.35294 21L12.5882 21C13.2123 21 13.8108 20.7542 14.252 20.3166C14.6933 19.879 14.9412 19.2855 14.9412 18.6667L14.9412 16.3333M7.88235 11.6667L22 11.6667M22 11.6667L18.4706 8.16667M22 11.6667L18.4706 15.1667" stroke="#2D2D2D" stroke-width="1.8" stroke-linecap="round" stroke-linejoin="round"/>
</svg>
