<svg width="24" height="24" viewBox="0 0 24 24" fill="none" xmlns="http://www.w3.org/2000/svg">
<path d="M14.5 17.625C15.173 17.962 15.82 18.373 16.406 18.812C16.4167 18.8201 16.4368 18.8378 16.4657 18.8634C16.7347 19.1007 17.763 20.0081 19 20C20.642 19.989 22 18.724 22 17.125V6.87501C22 5.27601 20.662 3.99701 19 4.00001M14.5 17.625L11.9646 16.8032C11.9775 16.8069 11.9904 16.8106 12.0033 16.8143L12 17C12 18.657 10.657 20 9 20C7.343 20 6 18.657 6 17V16.15V16C3.791 16 2 14.209 2 12C2 9.78601 3.73299 8.00001 5.93799 8.00001H8C8.08321 8.00001 8.2632 7.98754 8.51465 7.97013L8.53101 7.969C8.97601 7.937 9.462 7.87101 10 7.78101C11.536 7.52501 13.078 7.08601 14.5 6.37501M14.5 17.625L14.5672 17.4909C13.7682 17.0904 12.8975 16.7592 12.0474 16.5148L11.8595 16.4608L11.856 16.6564L11.85 16.9974H11.85V17C11.85 18.5742 10.5742 19.85 9 19.85C7.42584 19.85 6.15 18.5742 6.15 17V16V15.85H6C3.87384 15.85 2.15 14.1262 2.15 12C2.15 9.866 3.81866 8.15001 5.93799 8.15001H8C8.08853 8.15001 8.27192 8.1373 8.51477 8.12048L8.54137 8.11864L8.54176 8.11861C8.9933 8.08614 9.4844 8.01935 10.0247 7.92896M14.5 17.625L10.0247 7.92896M19 4.00001C17.6753 4.00268 16.7395 4.8775 16.4732 5.12645C16.4406 5.15696 16.418 5.17807 16.406 5.18702M19 4.00001L19.0003 4.15L19 4.00001ZM16.406 5.18702C15.817 5.63002 15.177 6.03701 14.5 6.37501M16.406 5.18702L16.4962 5.30689C16.4961 5.30696 16.496 5.30702 16.4959 5.30709M16.406 5.18702L16.4957 5.30728C16.4957 5.30722 16.4958 5.30715 16.4959 5.30709M14.5 6.37501L14.5671 6.50917M14.5 6.37501L14.567 6.50921C14.567 6.5092 14.5671 6.50918 14.5671 6.50917M14.5671 6.50917C13.1287 7.22838 11.5717 7.67113 10.0247 7.92896M14.5671 6.50917C15.2531 6.16667 15.9007 5.75476 16.4959 5.30709M10.0247 7.92896L19.0003 4.15001C17.7502 4.15254 16.8718 4.96314 16.5816 5.23095C16.5418 5.26774 16.513 5.29429 16.4959 5.30709M10.0247 7.92896L10.0001 7.7814L10.0247 7.92897C10.0247 7.92897 10.0247 7.92896 10.0247 7.92896ZM16.15 7.82102V7.56502L15.9267 7.69017C15.8474 7.73459 15.7759 7.77662 15.707 7.81719C15.5862 7.8882 15.4731 7.95475 15.3389 8.02185C13.7375 8.82256 12.025 9.34927 10.3194 9.63305L10.3193 9.63306C9.2923 9.80472 8.47758 9.85001 8 9.85001H7.85V10V14V14.15H8C8.47757 14.15 9.2913 14.1953 10.3193 14.367L10.3193 14.367C12.0262 14.6518 13.7366 15.1745 15.3388 15.9781L15.3392 15.9783C15.5496 16.083 15.7134 16.1708 15.9179 16.285L16.141 16.4095V16.154C16.141 14.8968 16.1432 13.4426 16.1455 11.9883V11.9877C16.1477 10.5333 16.15 9.07866 16.15 7.82102ZM6.15 10V9.85001H6H5.93799C4.76159 9.85001 3.85 10.8008 3.85 12C3.85 13.1878 4.81216 14.15 6 14.15H6.15V14V10ZM8 15.85H7.85V16V17C7.85 17.6349 8.36516 18.15 9 18.15C9.63484 18.15 10.15 17.6349 10.15 17V16.219V16.092L10.0247 16.0711C9.4844 15.9807 8.9933 15.9139 8.54176 15.8814L8.54137 15.8814L8.51498 15.8795C8.27203 15.8627 8.08856 15.85 8 15.85ZM20.15 6.87501C20.15 6.31441 19.6343 5.85001 19 5.85001C18.3657 5.85001 17.85 6.31441 17.85 6.87501V6.88985V6.90475V6.91972V6.93474V6.94983V6.96497V6.98017V6.99544V7.01076V7.02614V7.04158V7.05708V7.07264V7.08825V7.10392V7.11965V7.13544V7.15128V7.16718V7.18314V7.19916V7.21522V7.23135V7.24753V7.26377V7.28006V7.2964V7.3128V7.32926V7.34577V7.36233V7.37895V7.39562V7.41234V7.42911V7.44594V7.46282V7.47976V7.49674V7.51378V7.53087V7.54801V7.5652V7.58244V7.59973V7.61707V7.63447V7.65191V7.6694V7.68694V7.70453V7.72217V7.73986V7.75759V7.77538V7.79321V7.81109V7.82902V7.84699V7.86501V7.88308V7.90119V7.91935V7.93756V7.95581V7.97411V7.99245V8.01084V8.02928V8.04775V8.06628V8.08484V8.10345V8.12211V8.1408V8.15954V8.17833V8.19715V8.21602V8.23493V8.25388V8.27288V8.29191V8.31099V8.33011V8.34926V8.36846V8.3877V8.40698V8.4263V8.44566V8.46506V8.48449V8.50397V8.52349V8.54304V8.56263V8.58226V8.60192V8.62163V8.64137V8.66115V8.68096V8.70081V8.7207V8.74063V8.76059V8.78058V8.80061V8.82068V8.84078V8.86091V8.88108V8.90128V8.92152V8.94179V8.96209V8.98243V9.0028V9.0232V9.04364V9.0641V9.0846V9.10513V9.1257V9.14629V9.16691V9.18757V9.20825V9.22897V9.24972V9.27049V9.2913V9.31213V9.333V9.35389V9.37481V9.39576V9.41674V9.43774V9.45877V9.47984V9.50092V9.52204V9.54318V9.56435V9.58554V9.60676V9.62801V9.64928V9.67057V9.6919V9.71324V9.73461V9.75601V9.77743V9.79887V9.82034V9.84183V9.86334V9.88488V9.90644V9.92802V9.94962V9.97125V9.99289V10.0146V10.0363V10.058V10.0797V10.1014V10.1232V10.145V10.1668V10.1887V10.2105V10.2324V10.2543V10.2762V10.2981V10.32V10.342V10.364V10.386V10.408V10.43V10.4521V10.4741V10.4962V10.5183V10.5404V10.5625V10.5847V10.6068V10.629V10.6512V10.6734V10.6956V10.7178V10.7401V10.7623V10.7846V10.8069V10.8292V10.8515V10.8738V10.8962V10.9185V10.9408V10.9632V10.9856V11.008V11.0304V11.0528V11.0752V11.0976V11.1201V11.1425V11.165V11.1874V11.2099V11.2324V11.2549V11.2774V11.2999V11.3224V11.3449V11.3674V11.39V11.4125V11.4351V11.4576V11.4802V11.5027V11.5253V11.5479V11.5704V11.593V11.6156V11.6382V11.6608V11.6834V11.706V11.7286V11.7512V11.7738V11.7964V11.819V11.8417V11.8643V11.8869V11.9095V11.9321V11.9548V11.9774V12V12.0226V12.0453V12.0679V12.0905V12.1131V12.1357V12.1584V12.181V12.2036V12.2262V12.2488V12.2714V12.294V12.3166V12.3392V12.3618V12.3844V12.407V12.4296V12.4521V12.4747V12.4973V12.5199V12.5424V12.565V12.5875V12.61V12.6326V12.6551V12.6776V12.7001V12.7226V12.7451V12.7676V12.7901V12.8126V12.835V12.8575V12.8799V12.9024V12.9248V12.9472V12.9696V12.992V13.0144V13.0368V13.0592V13.0815V13.1039V13.1262V13.1485V13.1708V13.1931V13.2154V13.2377V13.2599V13.2822V13.3044V13.3266V13.3488V13.371V13.3932V13.4153V13.4375V13.4596V13.4817V13.5038V13.5259V13.5479V13.57V13.592V13.614V13.636V13.658V13.68V13.7019V13.7238V13.7458V13.7676V13.7895V13.8114V13.8332V13.855V13.8768V13.8986V13.9203V13.9421V13.9638V13.9855V14.0071V14.0288V14.0504V14.072V14.0936V14.1151V14.1367V14.1582V14.1797V14.2011V14.2226V14.244V14.2654V14.2868V14.3081V14.3294V14.3507V14.372V14.3933V14.4145V14.4357V14.4568V14.478V14.4991V14.5202V14.5412V14.5623V14.5833V14.6043V14.6252V14.6461V14.667V14.6879V14.7087V14.7295V14.7503V14.771V14.7918V14.8124V14.8331V14.8537V14.8743V14.8949V14.9154V14.9359V14.9564V14.9768V14.9972V15.0176V15.0379V15.0582V15.0785V15.0987V15.1189V15.1391V15.1592V15.1793V15.1994V15.2194V15.2394V15.2594V15.2793V15.2992V15.319V15.3389V15.3586V15.3784V15.3981V15.4178V15.4374V15.457V15.4765V15.496V15.5155V15.535V15.5544V15.5737V15.593V15.6123V15.6315V15.6507V15.6699V15.689V15.7081V15.7271V15.7461V15.7651V15.784V15.8029V15.8217V15.8405V15.8592V15.8779V15.8966V15.9152V15.9337V15.9523V15.9707V15.9892V16.0076V16.0259V16.0442V16.0625V16.0807V16.0988V16.1169V16.135V16.153V16.171V16.1889V16.2068V16.2246V16.2424V16.2602V16.2778V16.2955V16.3131V16.3306V16.3481V16.3655V16.3829V16.4003V16.4176V16.4348V16.452V16.4691V16.4862V16.5033V16.5203V16.5372V16.5541V16.5709V16.5877V16.6044V16.6211V16.6377V16.6542V16.6708V16.6872V16.7036V16.72V16.7362V16.7525V16.7687V16.7848V16.8009V16.8169V16.8328V16.8487V16.8646V16.8804V16.8961V16.9118V16.9274V16.9429V16.9584V16.9739V16.9893V17.0046V17.0198V17.035V17.0502V17.0653V17.0803V17.0953V17.1102V17.125C17.85 17.6856 18.3657 18.15 19 18.15C19.6343 18.15 20.15 17.6856 20.15 17.125V6.87501Z" fill="black" fill-opacity="0.65" stroke="white" stroke-width="0.3"/>
</svg>
