<svg width="100%" height="100%" viewBox="0 0 14 14" fill="none" xmlns="http://www.w3.org/2000/svg">
<path d="M6.45903 2.08221H3.04714C1.91653 2.08221 1 2.99872 1 4.12929V10.9529C1 12.0835 1.91653 13 3.04714 13H9.87093C11.0015 13 11.9181 12.0835 11.9181 10.9529L11.9181 7.54111M4.4119 9.58815L6.89461 9.08791C7.02641 9.06136 7.14743 8.99646 7.24247 8.90137L12.8003 3.3407C13.0667 3.07409 13.0666 2.64194 12.7999 2.37556L11.6225 1.19959C11.3559 0.933313 10.924 0.933495 10.6576 1.19999L5.09926 6.76123C5.0044 6.85614 4.93963 6.97691 4.91305 7.10843L4.4119 9.58815Z" stroke="#444444" stroke-linecap="round" stroke-linejoin="round"/>
</svg>
