<svg width="24" height="24" viewBox="0 0 24 24" fill="none" xmlns="http://www.w3.org/2000/svg">
<path d="M12 17.0626V11.4376M19.2 17.4001C18.2059 17.4001 17.4 18.206 17.4 19.2001C17.4 20.1942 18.2059 21.0001 19.2 21.0001C20.1941 21.0001 21 20.1942 21 19.2001C21 18.206 20.1941 17.4001 19.2 17.4001ZM19.2 17.4001L19.2 12.2251C19.2 11.728 18.797 11.3251 18.3 11.3251H5.69998C5.20293 11.3251 4.79998 11.728 4.79998 12.2251L4.79998 17.4001M4.79998 17.4001C3.80587 17.4001 2.99998 18.206 2.99998 19.2001C2.99998 20.1942 3.80587 21.0001 4.79998 21.0001C5.7941 21.0001 6.59998 20.1942 6.59998 19.2001C6.59998 18.206 5.7941 17.4001 4.79998 17.4001ZM12 21.0001C11.0059 21.0001 10.2 20.1942 10.2 19.2001C10.2 18.206 11.0059 17.4001 12 17.4001C12.9941 17.4001 13.8 18.206 13.8 19.2001C13.8 20.1942 12.9941 21.0001 12 21.0001ZM6.37498 7.50006H17.625C18.2463 7.50006 18.75 6.99638 18.75 6.37506V4.12506C18.75 3.50374 18.2463 3.00006 17.625 3.00006H6.37499C5.75366 3.00006 5.24999 3.50374 5.24999 4.12506V6.37506C5.24999 6.99638 5.75366 7.50006 6.37498 7.50006Z" stroke="currentColor" stroke-width="1.8" stroke-linecap="round"/>
</svg>
