<svg width="100%" height="100%" viewBox="0 0 24 24" fill="none" xmlns="http://www.w3.org/2000/svg">
<path d="M4.18404 19.564L4.54723 18.8512H4.54723L4.18404 19.564ZM2.43597 17.816L1.72317 18.1792L1.72317 18.1792L2.43597 17.816ZM17.816 2.43597L18.1792 1.72317L18.1792 1.72317L17.816 2.43597ZM19.564 4.18404L18.8512 4.54723V4.54723L19.564 4.18404ZM4.18404 2.43597L4.54723 3.14878H4.54723L4.18404 2.43597ZM2.43597 4.18404L3.14878 4.54723V4.54723L2.43597 4.18404ZM19.2 10C19.2 10.4418 19.5582 10.8 20 10.8C20.4418 10.8 20.8 10.4418 20.8 10H19.2ZM10 20.8C10.4418 20.8 10.8 20.4418 10.8 20C10.8 19.5582 10.4418 19.2 10 19.2V20.8ZM7 6.2C6.55817 6.2 6.2 6.55817 6.2 7C6.2 7.44183 6.55817 7.8 7 7.8V6.2ZM15 7.8C15.4418 7.8 15.8 7.44183 15.8 7C15.8 6.55817 15.4418 6.2 15 6.2V7.8ZM7 10.2C6.55817 10.2 6.2 10.5582 6.2 11C6.2 11.4418 6.55817 11.8 7 11.8V10.2ZM15 11.8C15.4418 11.8 15.8 11.4418 15.8 11C15.8 10.5582 15.4418 10.2 15 10.2V11.8ZM7 14.2C6.55817 14.2 6.2 14.5582 6.2 15C6.2 15.4418 6.55817 15.8 7 15.8V14.2ZM11 15.8C11.4418 15.8 11.8 15.4418 11.8 15C11.8 14.5582 11.4418 14.2 11 14.2V15.8ZM13.2532 20.4966L14.0122 20.7496V20.7496L13.2532 20.4966ZM13.716 19.1082L12.9571 18.8552V18.8552L13.716 19.1082ZM14.1935 18.3356L14.7592 18.9012L14.7592 18.9012L14.1935 18.3356ZM18.8054 13.7237L18.2397 13.158V13.158L18.8054 13.7237ZM21.2763 16.1946L21.842 16.7603L21.2763 16.1946ZM16.6644 20.8065L16.0988 20.2408H16.0988L16.6644 20.8065ZM15.8918 21.284L16.1448 22.0429L16.1448 22.0429L15.8918 21.284ZM14.5034 21.7468L14.7564 22.5057H14.7564L14.5034 21.7468ZM16.4112 21.0429L16.8929 21.6815L16.8929 21.6815L16.4112 21.0429ZM16.2165 21.1632L15.8608 20.4466H15.8608L16.2165 21.1632ZM21.2763 13.7237L20.7106 14.2894L21.2763 13.7237ZM21.8715 14.4106L22.5884 14.0554V14.0554L21.8715 14.4106ZM21.8715 15.5077L22.5884 15.8629V15.8629L21.8715 15.5077ZM19.4923 13.1285L19.8475 13.8453L19.4923 13.1285ZM20.5894 13.1285L20.2342 13.8453L20.2342 13.8453L20.5894 13.1285ZM13.8368 18.7835L14.5534 19.1392H14.5534L13.8368 18.7835ZM13.9571 18.5888L13.3185 18.1071L13.9571 18.5888ZM13.023 21.6026L13.7765 21.3339L13.023 21.6026ZM13.3974 21.977L13.1287 22.7305L13.3974 21.977ZM8.4 2.8H13.6V1.2H8.4V2.8ZM2.8 13.6V8.4H1.2V13.6H2.8ZM8.4 19.2C7.26669 19.2 6.46483 19.1994 5.83795 19.1482C5.22042 19.0977 4.84348 19.0022 4.54723 18.8512L3.82085 20.2768C4.38024 20.5619 4.99118 20.6843 5.70766 20.7428C6.4148 20.8006 7.2931 20.8 8.4 20.8V19.2ZM1.2 13.6C1.2 14.7069 1.19938 15.5852 1.25715 16.2923C1.31569 17.0088 1.43814 17.6198 1.72317 18.1792L3.14878 17.4528C2.99783 17.1565 2.90229 16.7796 2.85184 16.162C2.80062 15.5352 2.8 14.7333 2.8 13.6H1.2ZM4.54723 18.8512C3.94511 18.5444 3.45557 18.0549 3.14878 17.4528L1.72317 18.1792C2.18336 19.0823 2.91767 19.8166 3.82085 20.2768L4.54723 18.8512ZM13.6 2.8C14.7333 2.8 15.5352 2.80062 16.162 2.85184C16.7796 2.90229 17.1565 2.99783 17.4528 3.14878L18.1792 1.72317C17.6198 1.43814 17.0088 1.31569 16.2923 1.25715C15.5852 1.19938 14.7069 1.2 13.6 1.2V2.8ZM20.8 8.4C20.8 7.2931 20.8006 6.4148 20.7428 5.70766C20.6843 4.99118 20.5619 4.38024 20.2768 3.82085L18.8512 4.54723C19.0022 4.84348 19.0977 5.22042 19.1482 5.83795C19.1994 6.46483 19.2 7.26669 19.2 8.4H20.8ZM17.4528 3.14878C18.0549 3.45557 18.5444 3.94511 18.8512 4.54723L20.2768 3.82085C19.8166 2.91767 19.0823 2.18336 18.1792 1.72317L17.4528 3.14878ZM8.4 1.2C7.2931 1.2 6.4148 1.19938 5.70766 1.25715C4.99118 1.31569 4.38024 1.43814 3.82085 1.72317L4.54723 3.14878C4.84348 2.99783 5.22042 2.90229 5.83795 2.85184C6.46483 2.80062 7.26669 2.8 8.4 2.8V1.2ZM2.8 8.4C2.8 7.26669 2.80062 6.46483 2.85184 5.83795C2.90229 5.22042 2.99783 4.84348 3.14878 4.54723L1.72317 3.82085C1.43814 4.38024 1.31569 4.99118 1.25715 5.70766C1.19938 6.4148 1.2 7.2931 1.2 8.4H2.8ZM3.82085 1.72317C2.91767 2.18336 2.18336 2.91767 1.72317 3.82085L3.14878 4.54723C3.45557 3.94511 3.94511 3.45557 4.54723 3.14878L3.82085 1.72317ZM19.2 8.4V10H20.8V8.4H19.2ZM8.4 20.8H10V19.2H8.4V20.8ZM7 7.8H15V6.2H7V7.8ZM7 11.8H15V10.2H7V11.8ZM7 15.8H11V14.2H7V15.8ZM14.0122 20.7496L14.475 19.3612L12.9571 18.8552L12.4943 20.2436L14.0122 20.7496ZM14.7592 18.9012L19.3711 14.2894L18.2397 13.158L13.6279 17.7699L14.7592 18.9012ZM20.7106 15.6289L16.0988 20.2408L17.2301 21.3721L21.842 16.7603L20.7106 15.6289ZM15.6388 20.525L14.2504 20.9878L14.7564 22.5057L16.1448 22.0429L15.6388 20.525ZM16.0988 20.2408C15.9606 20.3789 15.9434 20.3936 15.9294 20.4042L16.8929 21.6815C17.0163 21.5885 17.1222 21.4801 17.2301 21.3721L16.0988 20.2408ZM16.1448 22.0429C16.2896 21.9946 16.4339 21.9484 16.5723 21.8797L15.8608 20.4466C15.845 20.4544 15.8242 20.4633 15.6388 20.525L16.1448 22.0429ZM15.9294 20.4042C15.9079 20.4204 15.8849 20.4346 15.8608 20.4466L16.5723 21.8797C16.6851 21.8237 16.7924 21.7574 16.8929 21.6815L15.9294 20.4042ZM20.7106 14.2894C21.0931 14.6719 21.1377 14.7314 21.1547 14.7658L22.5884 14.0554C22.4253 13.7264 22.1331 13.4492 21.842 13.158L20.7106 14.2894ZM21.842 16.7603C22.1331 16.4692 22.4253 16.1919 22.5884 15.8629L21.1547 15.1525C21.1377 15.1869 21.0931 15.2464 20.7106 15.6289L21.842 16.7603ZM21.1547 14.7658C21.2151 14.8876 21.2151 15.0307 21.1547 15.1525L22.5884 15.8629C22.8706 15.2935 22.8706 14.6249 22.5884 14.0554L21.1547 14.7658ZM19.3711 14.2894C19.7536 13.9069 19.8131 13.8623 19.8475 13.8453L19.1371 12.4116C18.8081 12.5747 18.5308 12.8669 18.2397 13.158L19.3711 14.2894ZM21.842 13.158C21.5508 12.8669 21.2736 12.5747 20.9446 12.4116L20.2342 13.8453C20.2686 13.8623 20.3281 13.9069 20.7106 14.2894L21.842 13.158ZM19.8475 13.8453C19.9693 13.7849 20.1124 13.7849 20.2342 13.8453L20.9446 12.4116C20.3751 12.1295 19.7065 12.1295 19.1371 12.4116L19.8475 13.8453ZM14.475 19.3612C14.5367 19.1758 14.5456 19.155 14.5534 19.1392L13.1203 18.4277C13.0516 18.5661 13.0053 18.7104 12.9571 18.8552L14.475 19.3612ZM13.6279 17.7699C13.5199 17.8778 13.4115 17.9837 13.3185 18.1071L14.5958 19.0706C14.6064 19.0566 14.6211 19.0394 14.7592 18.9012L13.6279 17.7699ZM14.5534 19.1392C14.5654 19.1151 14.5796 19.0921 14.5958 19.0706L13.3185 18.1071C13.2426 18.2076 13.1763 18.3149 13.1203 18.4277L14.5534 19.1392ZM12.4943 20.2436C12.3987 20.5303 12.3087 20.7977 12.257 21.0177C12.2081 21.2258 12.1525 21.5434 12.2695 21.8713L13.7765 21.3339C13.8219 21.4612 13.7808 21.5275 13.8146 21.3837C13.8456 21.2517 13.9065 21.0665 14.0122 20.7496L12.4943 20.2436ZM14.2504 20.9878C13.9335 21.0935 13.7483 21.1544 13.6163 21.1854C13.4725 21.2192 13.5388 21.1781 13.6661 21.2235L13.1287 22.7305C13.4566 22.8475 13.7742 22.7919 13.9823 22.743C14.2023 22.6913 14.4697 22.6013 14.7564 22.5057L14.2504 20.9878ZM12.2695 21.8713C12.4124 22.2722 12.7278 22.5876 13.1287 22.7305L13.6661 21.2235C13.7176 21.2419 13.7581 21.2824 13.7765 21.3339L12.2695 21.8713Z" fill="black" fill-opacity="0.65"/>
</svg>
