<svg width="100%" height="100%" viewBox="0 0 20 16" fill="none" xmlns="http://www.w3.org/2000/svg">
<path d="M12.5 13.625C13.173 13.962 13.82 14.373 14.406 14.812C14.4167 14.8201 14.4368 14.8378 14.4657 14.8634C14.7347 15.1007 15.763 16.0081 17 16C18.642 15.989 20 14.724 20 13.125V2.87501C20 1.27601 18.662 -0.00299473 17 5.26675e-06M12.5 13.625L9.96458 12.8032C9.97747 12.8069 9.99037 12.8106 10.0033 12.8143L10 13C10 14.657 8.657 16 7 16C5.343 16 4 14.657 4 13V12.15V12C1.791 12 0 10.209 0 8.00001C0 5.78601 1.73299 4.00001 3.93799 4.00001H6C6.08321 4.00001 6.2632 3.98754 6.51465 3.97013L6.53101 3.969C6.97601 3.937 7.462 3.87101 8 3.78101C9.536 3.52501 11.078 3.08601 12.5 2.37501M12.5 13.625L12.5672 13.4909C11.7682 13.0904 10.8975 12.7592 10.0474 12.5148L9.85948 12.4608L9.85604 12.6564L9.85002 12.9974H9.85V13C9.85 14.5742 8.57416 15.85 7 15.85C5.42584 15.85 4.15 14.5742 4.15 13V12V11.85H4C1.87384 11.85 0.15 10.1262 0.15 8.00001C0.15 5.866 1.81866 4.15001 3.93799 4.15001H6C6.08853 4.15001 6.27192 4.1373 6.51477 4.12048L6.54137 4.11864L6.54176 4.11861C6.9933 4.08614 7.4844 4.01935 8.02475 3.92896M12.5 13.625L8.02475 3.92896M17 5.26675e-06C15.6753 0.00267776 14.7395 0.877503 14.4732 1.12645C14.4406 1.15696 14.418 1.17807 14.406 1.18702M17 5.26675e-06L17.0003 0.150005L17 5.26675e-06ZM14.406 1.18702C13.817 1.63002 13.177 2.03701 12.5 2.37501M14.406 1.18702L14.4962 1.30689C14.4961 1.30696 14.496 1.30702 14.4959 1.30709M14.406 1.18702L14.4957 1.30728C14.4957 1.30722 14.4958 1.30715 14.4959 1.30709M12.5 2.37501L12.5671 2.50917M12.5 2.37501L12.567 2.50921C12.567 2.5092 12.5671 2.50918 12.5671 2.50917M12.5671 2.50917C11.1287 3.22838 9.57166 3.67113 8.02475 3.92896M12.5671 2.50917C13.2531 2.16667 13.9007 1.75476 14.4959 1.30709M8.02475 3.92896L17.0003 0.150005C15.7502 0.152541 14.8718 0.963144 14.5816 1.23095C14.5418 1.26774 14.513 1.29429 14.4959 1.30709M8.02475 3.92896L8.00006 3.7814L8.02466 3.92897C8.02469 3.92897 8.02472 3.92896 8.02475 3.92896ZM14.15 3.82102V3.56502L13.9267 3.69017C13.8474 3.73459 13.7759 3.77662 13.707 3.81719C13.5862 3.8882 13.4731 3.95475 13.3389 4.02185C11.7375 4.82256 10.025 5.34927 8.31938 5.63305L8.31926 5.63306C7.2923 5.80472 6.47758 5.85001 6 5.85001H5.85V6.00001V10V10.15H6C6.47757 10.15 7.2913 10.1953 8.31929 10.367L8.31931 10.367C10.0262 10.6518 11.7366 11.1745 13.3388 11.9781L13.3392 11.9783C13.5496 12.083 13.7134 12.1708 13.9179 12.285L14.141 12.4095V12.154C14.141 10.8968 14.1432 9.44263 14.1455 7.98828V7.98774C14.1477 6.53328 14.15 5.07866 14.15 3.82102ZM4.15 6.00001V5.85001H4H3.93799C2.76159 5.85001 1.85 6.80079 1.85 8.00001C1.85 9.18785 2.81216 10.15 4 10.15H4.15V10V6.00001ZM6 11.85H5.85V12V13C5.85 13.6349 6.36516 14.15 7 14.15C7.63484 14.15 8.15 13.6349 8.15 13V12.219V12.092L8.02475 12.0711C7.4844 11.9807 6.9933 11.9139 6.54176 11.8814L6.54137 11.8814L6.51498 11.8795C6.27203 11.8627 6.08856 11.85 6 11.85ZM18.15 2.87501C18.15 2.31441 17.6343 1.85001 17 1.85001C16.3657 1.85001 15.85 2.31441 15.85 2.87501V2.88985V2.90475V2.91972V2.93474V2.94983V2.96497V2.98017V2.99544V3.01076V3.02614V3.04158V3.05708V3.07264V3.08825V3.10392V3.11965V3.13544V3.15128V3.16718V3.18314V3.19916V3.21522V3.23135V3.24753V3.26377V3.28006V3.2964V3.3128V3.32926V3.34577V3.36233V3.37895V3.39562V3.41234V3.42911V3.44594V3.46282V3.47976V3.49674V3.51378V3.53087V3.54801V3.5652V3.58244V3.59973V3.61707V3.63447V3.65191V3.6694V3.68694V3.70453V3.72217V3.73986V3.75759V3.77538V3.79321V3.81109V3.82902V3.84699V3.86501V3.88308V3.90119V3.91935V3.93756V3.95581V3.97411V3.99245V4.01084V4.02928V4.04775V4.06628V4.08484V4.10345V4.12211V4.1408V4.15954V4.17833V4.19715V4.21602V4.23493V4.25388V4.27288V4.29191V4.31099V4.33011V4.34926V4.36846V4.3877V4.40698V4.4263V4.44566V4.46506V4.48449V4.50397V4.52349V4.54304V4.56263V4.58226V4.60192V4.62163V4.64137V4.66115V4.68096V4.70081V4.7207V4.74063V4.76059V4.78058V4.80061V4.82068V4.84078V4.86091V4.88108V4.90128V4.92152V4.94179V4.96209V4.98243V5.0028V5.0232V5.04364V5.0641V5.0846V5.10513V5.1257V5.14629V5.16691V5.18757V5.20825V5.22897V5.24972V5.27049V5.2913V5.31213V5.333V5.35389V5.37481V5.39576V5.41674V5.43774V5.45877V5.47984V5.50092V5.52204V5.54318V5.56435V5.58554V5.60676V5.62801V5.64928V5.67057V5.6919V5.71324V5.73461V5.75601V5.77743V5.79887V5.82034V5.84183V5.86334V5.88488V5.90644V5.92802V5.94962V5.97125V5.99289V6.01456V6.03625V6.05796V6.07969V6.10144V6.12322V6.14501V6.16682V6.18865V6.2105V6.23237V6.25426V6.27617V6.29809V6.32004V6.342V6.36398V6.38597V6.40799V6.43002V6.45207V6.47413V6.49621V6.51831V6.54042V6.56255V6.58469V6.60685V6.62902V6.6512V6.67341V6.69562V6.71785V6.74009V6.76235V6.78462V6.8069V6.82919V6.8515V6.87382V6.89615V6.91849V6.94085V6.96321V6.98559V7.00798V7.03037V7.05278V7.0752V7.09763V7.12006V7.14251V7.16497V7.18743V7.2099V7.23238V7.25487V7.27737V7.29988V7.32239V7.34491V7.36743V7.38997V7.41251V7.43505V7.4576V7.48016V7.50272V7.52529V7.54786V7.57044V7.59302V7.61561V7.6382V7.66079V7.68339V7.70599V7.7286V7.75121V7.77382V7.79643V7.81904V7.84166V7.86428V7.8869V7.90952V7.93214V7.95476V7.97738V8.00001V8.02263V8.04525V8.06787V8.0905V8.11312V8.13574V8.15835V8.18097V8.20358V8.2262V8.24881V8.27141V8.29402V8.31662V8.33922V8.36181V8.3844V8.40699V8.42957V8.45215V8.47472V8.49729V8.51985V8.54241V8.56496V8.58751V8.61005V8.63258V8.65511V8.67763V8.70014V8.72264V8.74514V8.76763V8.79011V8.81258V8.83505V8.8575V8.87995V8.90239V8.92481V8.94723V8.96964V8.99204V9.01442V9.0368V9.05917V9.08152V9.10386V9.12619V9.14851V9.17082V9.19311V9.2154V9.23767V9.25992V9.28216V9.30439V9.32661V9.34881V9.371V9.39317V9.41533V9.43747V9.45959V9.48171V9.5038V9.52588V9.54795V9.56999V9.59202V9.61404V9.63603V9.65801V9.67998V9.70192V9.72384V9.74575V9.76764V9.78951V9.81136V9.83319V9.855V9.8768V9.89857V9.92032V9.94205V9.96376V9.98545V10.0071V10.0288V10.0504V10.072V10.0936V10.1151V10.1367V10.1582V10.1797V10.2011V10.2226V10.244V10.2654V10.2868V10.3081V10.3294V10.3507V10.372V10.3933V10.4145V10.4357V10.4568V10.478V10.4991V10.5202V10.5412V10.5623V10.5833V10.6043V10.6252V10.6461V10.667V10.6879V10.7087V10.7295V10.7503V10.771V10.7918V10.8124V10.8331V10.8537V10.8743V10.8949V10.9154V10.9359V10.9564V10.9768V10.9972V11.0176V11.0379V11.0582V11.0785V11.0987V11.1189V11.1391V11.1592V11.1793V11.1994V11.2194V11.2394V11.2594V11.2793V11.2992V11.319V11.3389V11.3586V11.3784V11.3981V11.4178V11.4374V11.457V11.4765V11.496V11.5155V11.535V11.5544V11.5737V11.593V11.6123V11.6315V11.6507V11.6699V11.689V11.7081V11.7271V11.7461V11.7651V11.784V11.8029V11.8217V11.8405V11.8592V11.8779V11.8966V11.9152V11.9337V11.9523V11.9707V11.9892V12.0076V12.0259V12.0442V12.0625V12.0807V12.0988V12.1169V12.135V12.153V12.171V12.1889V12.2068V12.2246V12.2424V12.2602V12.2778V12.2955V12.3131V12.3306V12.3481V12.3655V12.3829V12.4003V12.4176V12.4348V12.452V12.4691V12.4862V12.5033V12.5203V12.5372V12.5541V12.5709V12.5877V12.6044V12.6211V12.6377V12.6542V12.6708V12.6872V12.7036V12.72V12.7362V12.7525V12.7687V12.7848V12.8009V12.8169V12.8328V12.8487V12.8646V12.8804V12.8961V12.9118V12.9274V12.9429V12.9584V12.9739V12.9893V13.0046V13.0198V13.035V13.0502V13.0653V13.0803V13.0953V13.1102V13.125C15.85 13.6856 16.3657 14.15 17 14.15C17.6343 14.15 18.15 13.6856 18.15 13.125V2.87501Z" fill="black" fill-opacity="0.65" stroke="white" stroke-width="0.3"/>
</svg>
