<svg width="24" height="24" viewBox="0 0 24 24" fill="none" xmlns="http://www.w3.org/2000/svg">
<path d="M17.3117 1.99988C17.0262 1.99988 16.7436 2.05693 16.4803 2.16768C16.2188 2.27774 15.9817 2.43863 15.7829 2.641L4.01106 14.3557C3.92366 14.4426 3.86026 14.5508 3.82702 14.6695L2.02648 21.1C1.95688 21.3485 2.02676 21.6153 2.20929 21.7979C2.39181 21.9804 2.6586 22.0503 2.90717 21.9807L9.33767 20.1802C9.45639 20.1469 9.5645 20.0834 9.65147 19.9961L21.366 8.22443L21.368 8.2225C21.5679 8.02362 21.7266 7.78724 21.8351 7.52687C21.944 7.26568 22 6.98551 22 6.70254C22 6.41957 21.944 6.1394 21.8351 5.87819C21.7266 5.61783 21.5679 5.38143 21.368 5.18257L21.366 5.18066L18.8421 2.6425C18.643 2.43942 18.4053 2.27801 18.1431 2.16768C17.8799 2.05693 17.5973 1.99988 17.3117 1.99988Z" fill="black" fill-opacity="0.65"/>
</svg>
