<svg width="24" height="25" viewBox="0 0 24 25" fill="none" xmlns="http://www.w3.org/2000/svg">
<path d="M15.5 3.5C13.0147 3.5 11 5.515 11 8C11 10.485 13.0147 12.5 15.5 12.5C17.9853 12.5 20 10.485 20 8C20 5.515 17.9853 3.5 15.5 3.5ZM8 4.5C5.7909 4.5 4 6.291 4 8.5C4 10.709 5.7909 12.5 8 12.5C8.8294 12.5 9.5865 12.272 10.2528 11.806C8.544 9.26603 8.7862 6.834 9.7175 4.875C9.1856 4.623 8.6014 4.5 8 4.5ZM5.0625 13.844C3.2284 14.601 2 16.456 2 18.5V20.5C2 21.052 2.4477 21.5 3 21.5L7.1528 21.502C6.9188 20.742 6.9876 19.51 7.003 18.513C7.0355 16.396 7.911 14.886 8.2539 14.488C7.6237 14.483 6.8674 14.33 6.3125 14.094C6.1785 14.037 6.1007 13.992 5.8438 13.875C5.5919 13.76 5.3183 13.738 5.0625 13.844ZM12.0625 13.844C10.2284 14.601 9 16.456 9 18.5V20.5C9 21.052 9.4477 21.5 10 21.5H21C21.5523 21.5 22 21.052 22 20.5V18.5C22 16.504 20.7648 14.694 18.9375 13.906C18.6803 13.795 18.3806 13.792 18.125 13.906C17.2402 14.303 16.3782 14.5 15.5 14.5C14.6248 14.5 13.7598 14.292 12.8438 13.875C12.5919 13.76 12.3183 13.738 12.0625 13.844Z" fill="black" fill-opacity="0.45"/>
</svg>
