<svg width="100%" height="100%" viewBox="0 0 24 24" fill="none" xmlns="http://www.w3.org/2000/svg">
<path d="M6.7 6.5C6.7 6.94183 7.05817 7.3 7.5 7.3C7.94183 7.3 8.3 6.94183 8.3 6.5H6.7ZM15.7 6.5C15.7 6.94183 16.0582 7.3 16.5 7.3C16.9418 7.3 17.3 6.94183 17.3 6.5H15.7ZM8.72852 22.0048L9.09171 21.292L8.72852 22.0048ZM7.74524 21.0215L8.45804 20.6583L7.74524 21.0215ZM16.2548 21.0215L15.542 20.6583L16.2548 21.0215ZM15.2715 22.0048L14.9083 21.292L15.2715 22.0048ZM15.2715 12.3702L14.9083 13.083L15.2715 12.3702ZM16.2548 13.3535L15.542 13.7167L16.2548 13.3535ZM8.72852 12.3702L9.09171 13.083L8.72852 12.3702ZM7.74524 13.3535L8.45804 13.7167L7.74524 13.3535ZM10.875 14.7C10.4332 14.7 10.075 15.0582 10.075 15.5C10.075 15.9418 10.4332 16.3 10.875 16.3V14.7ZM13.125 16.3C13.5668 16.3 13.925 15.9418 13.925 15.5C13.925 15.0582 13.5668 14.7 13.125 14.7V16.3ZM10.875 18.075C10.4332 18.075 10.075 18.4332 10.075 18.875C10.075 19.3168 10.4332 19.675 10.875 19.675V18.075ZM13.125 19.675C13.5668 19.675 13.925 19.3168 13.925 18.875C13.925 18.4332 13.5668 18.075 13.125 18.075V19.675ZM5.25 7.3H18.75V5.7H5.25V7.3ZM20.2 8.75V14.375H21.8V8.75H20.2ZM3.8 14.375V8.75H2.2V14.375H3.8ZM18.75 15.825H15.6V17.425H18.75V15.825ZM8.4 15.825H5.25V17.425H8.4V15.825ZM2.2 14.375C2.2 16.0595 3.56553 17.425 5.25 17.425V15.825C4.44919 15.825 3.8 15.1758 3.8 14.375H2.2ZM20.2 14.375C20.2 15.1758 19.5508 15.825 18.75 15.825V17.425C20.4345 17.425 21.8 16.0595 21.8 14.375H20.2ZM18.75 7.3C19.5508 7.3 20.2 7.94919 20.2 8.75H21.8C21.8 7.06553 20.4345 5.7 18.75 5.7V7.3ZM5.25 5.7C3.56553 5.7 2.2 7.06553 2.2 8.75H3.8C3.8 7.94919 4.44919 7.3 5.25 7.3V5.7ZM8.3 6.5V4.25H6.7V6.5H8.3ZM9.75 2.8H14.25V1.2H9.75V2.8ZM15.7 4.25V6.5H17.3V4.25H15.7ZM14.25 2.8C15.0508 2.8 15.7 3.44919 15.7 4.25H17.3C17.3 2.56553 15.9345 1.2 14.25 1.2V2.8ZM8.3 4.25C8.3 3.44919 8.94919 2.8 9.75 2.8V1.2C8.06553 1.2 6.7 2.56553 6.7 4.25H8.3ZM11.1 12.925H12.9V11.325H11.1V12.925ZM15.7 15.725V18.65H17.3V15.725H15.7ZM12.9 21.45H11.1V23.05H12.9V21.45ZM8.3 18.65V15.725H6.7V18.65H8.3ZM11.1 21.45C10.4567 21.45 10.0224 21.4494 9.68735 21.422C9.36163 21.3954 9.20079 21.3475 9.09171 21.292L8.36533 22.7176C8.73755 22.9072 9.13239 22.982 9.55706 23.0167C9.97238 23.0506 10.4831 23.05 11.1 23.05V21.45ZM6.7 18.65C6.7 19.2669 6.69938 19.7776 6.73331 20.1929C6.76801 20.6176 6.84277 21.0124 7.03243 21.3847L8.45804 20.6583C8.40246 20.5492 8.35461 20.3884 8.328 20.0627C8.30062 19.7276 8.3 19.2933 8.3 18.65H6.7ZM9.09171 21.292C8.81888 21.1529 8.59706 20.9311 8.45804 20.6583L7.03243 21.3847C7.32484 21.9586 7.79144 22.4252 8.36533 22.7176L9.09171 21.292ZM15.7 18.65C15.7 19.2933 15.6994 19.7276 15.672 20.0627C15.6454 20.3884 15.5975 20.5492 15.542 20.6583L16.9676 21.3847C17.1572 21.0124 17.232 20.6176 17.2667 20.1929C17.3006 19.7776 17.3 19.2669 17.3 18.65H15.7ZM12.9 23.05C13.5169 23.05 14.0276 23.0506 14.4429 23.0167C14.8676 22.982 15.2624 22.9072 15.6347 22.7176L14.9083 21.292C14.7992 21.3475 14.6384 21.3954 14.3126 21.422C13.9776 21.4494 13.5433 21.45 12.9 21.45V23.05ZM15.542 20.6583C15.4029 20.9311 15.1811 21.1529 14.9083 21.292L15.6347 22.7176C16.2086 22.4252 16.6752 21.9586 16.9676 21.3847L15.542 20.6583ZM12.9 12.925C13.5433 12.925 13.9776 12.9256 14.3126 12.953C14.6384 12.9796 14.7992 13.0275 14.9083 13.083L15.6347 11.6574C15.2624 11.4678 14.8676 11.393 14.4429 11.3583C14.0276 11.3244 13.5169 11.325 12.9 11.325V12.925ZM17.3 15.725C17.3 15.1081 17.3006 14.5974 17.2667 14.1821C17.232 13.7574 17.1572 13.3626 16.9676 12.9903L15.542 13.7167C15.5975 13.8258 15.6454 13.9866 15.672 14.3124C15.6994 14.6474 15.7 15.0817 15.7 15.725H17.3ZM14.9083 13.083C15.1811 13.2221 15.4029 13.4439 15.542 13.7167L16.9676 12.9903C16.6752 12.4164 16.2086 11.9498 15.6347 11.6574L14.9083 13.083ZM11.1 11.325C10.4831 11.325 9.97238 11.3244 9.55706 11.3583C9.13239 11.393 8.73755 11.4678 8.36533 11.6574L9.09171 13.083C9.20079 13.0275 9.36163 12.9796 9.68735 12.953C10.0224 12.9256 10.4567 12.925 11.1 12.925V11.325ZM8.3 15.725C8.3 15.0817 8.30062 14.6474 8.328 14.3124C8.35461 13.9866 8.40246 13.8258 8.45804 13.7167L7.03243 12.9903C6.84277 13.3626 6.76801 13.7574 6.73331 14.1821C6.69938 14.5974 6.7 15.1081 6.7 15.725H8.3ZM8.36533 11.6574C7.79143 11.9498 7.32484 12.4164 7.03243 12.9903L8.45804 13.7167C8.59706 13.4439 8.81888 13.2221 9.09171 13.083L8.36533 11.6574ZM10.875 16.3H13.125V14.7H10.875V16.3ZM10.875 19.675H13.125V18.075H10.875V19.675Z" fill="currentColor"/>
</svg>
