<svg width="16" height="16" viewBox="0 0 16 16" fill="none" xmlns="http://www.w3.org/2000/svg">
<path d="M11.9355 11.6214L12.5855 11.6272L11.9355 11.6214ZM3 3.75C2.64101 3.75 2.35 4.04101 2.35 4.4C2.35 4.75898 2.64101 5.05 3 5.05V3.75ZM12.6 5.05C12.959 5.05 13.25 4.75898 13.25 4.4C13.25 4.04101 12.959 3.75 12.6 3.75V5.05ZM7.25 6.8C7.25 6.44101 6.95898 6.15 6.6 6.15C6.24101 6.15 5.95 6.44101 5.95 6.8H7.25ZM5.95 11.6C5.95 11.959 6.24101 12.25 6.6 12.25C6.95898 12.25 7.25 11.959 7.25 11.6H5.95ZM9.65 6.8C9.65 6.44101 9.35898 6.15 9 6.15C8.64101 6.15 8.35 6.44101 8.35 6.8H9.65ZM8.35 11.6C8.35 11.959 8.64101 12.25 9 12.25C9.35898 12.25 9.65 11.959 9.65 11.6H8.35ZM11.35 4.3942L11.2855 11.6156L12.5855 11.6272L12.65 4.4058L11.35 4.3942ZM9.53562 13.35H6V14.65H9.53562V13.35ZM2.95 4.4V11.6H4.25V4.4H2.95ZM3 5.05H3.6V3.75H3V5.05ZM3.6 5.05H5.4V3.75H3.6V5.05ZM5.4 5.05H10.2V3.75H5.4V5.05ZM10.2 5.05H12V3.75H10.2V5.05ZM12 5.05H12.6V3.75H12V5.05ZM6.05 4.13333C6.05 3.38397 6.75941 2.65 7.8 2.65V1.35C6.18962 1.35 4.75 2.52628 4.75 4.13333H6.05ZM7.8 2.65C8.84059 2.65 9.55 3.38397 9.55 4.13333H10.85C10.85 2.52628 9.41038 1.35 7.8 1.35V2.65ZM4.75 4.13333V4.4H6.05V4.13333H4.75ZM9.55 4.13333V4.4H10.85V4.13333H9.55ZM6 13.35C5.0335 13.35 4.25 12.5665 4.25 11.6H2.95C2.95 13.2845 4.31553 14.65 6 14.65V13.35ZM11.2855 11.6156C11.277 12.576 10.496 13.35 9.53562 13.35V14.65C11.2095 14.65 12.5706 13.301 12.5855 11.6272L11.2855 11.6156ZM5.95 6.8V11.6H7.25V6.8H5.95ZM8.35 6.8V11.6H9.65V6.8H8.35Z" fill="#E76735"/>
</svg>
