<svg width="16" height="16" viewBox="0 0 16 16" fill="none" xmlns="http://www.w3.org/2000/svg">
<path d="M2.5 6.5H13.5V12C13.5 12.8284 12.8284 13.5 12 13.5H4C3.17157 13.5 2.5 12.8284 2.5 12V6.5Z" stroke="#2D2D2D"/>
<rect x="5.1875" y="9" width="1.125" height="1.125" rx="0.5625" fill="#2D2D2D"/>
<rect x="7.4375" y="9" width="1.125" height="1.125" rx="0.5625" fill="#2D2D2D"/>
<rect x="9.6875" y="9" width="1.125" height="1.125" rx="0.5625" fill="#2D2D2D"/>
<rect x="5.25" y="2.25" width="0.5" height="1.5" rx="0.25" stroke="#2D2D2D" stroke-width="0.5"/>
<rect x="10.25" y="2.25" width="0.5" height="1.5" rx="0.25" stroke="#2D2D2D" stroke-width="0.5"/>
<path d="M2.5 5C2.5 4.17157 3.17157 3.5 4 3.5H12C12.8284 3.5 13.5 4.17157 13.5 5V6.5H2.5V5Z" stroke="#2D2D2D"/>
</svg>
