<svg width="14" height="14" viewBox="0 0 14 14" fill="none" xmlns="http://www.w3.org/2000/svg">
<path d="M12.5475 9.38551C12.5325 9.36998 11.3269 8.4423 11.3269 8.4423C11.0375 8.16673 10.6531 8.01333 10.2536 8.01398C9.854 8.01463 9.47008 8.1693 9.18165 8.4458L8.22999 9.25026C7.45018 8.92801 6.74176 8.45477 6.14547 7.85774C5.54918 7.26072 5.07679 6.5517 4.75546 5.77145L5.55685 4.81972C5.83276 4.5312 5.98696 4.1475 5.98742 3.74828C5.98789 3.34905 5.83459 2.96499 5.55936 2.67583C5.55936 2.67583 4.63275 1.47214 4.61672 1.45661C4.33112 1.16851 3.94355 1.0045 3.53792 1.00009C3.13229 0.995685 2.74124 1.15124 2.44946 1.43307L1.87396 1.93398C-1.99325 6.04595 7.98457 16.0291 12.0917 12.1024L12.5485 11.5765C12.8379 11.2854 13.0002 10.8915 13 10.481C12.9998 10.0706 12.8371 9.67636 12.5475 9.38551Z" stroke="#2D2D2D"/>
</svg>
