<svg width="16" height="16" viewBox="0 0 16 16" fill="none" xmlns="http://www.w3.org/2000/svg">
<mask id="path-1-inside-1_539_19138" fill="white">
<path d="M14.0001 11L14.0001 13C14.0001 13.5523 13.5524 14 13.0001 14L3.00012 14C2.44784 14 2.00012 13.5523 2.00012 13L2.00012 11L14.0001 11Z"/>
</mask>
<path d="M15.0001 11L15.0001 13C15.0001 14.1046 14.1047 15 13.0001 15L13.0001 13L13.0001 11L15.0001 11ZM3.00012 15C1.89555 15 1.00012 14.1046 1.00012 13L1.00012 11L3.00012 11L3.00012 13L3.00012 15ZM2.00012 11L14.0001 11L2.00012 11ZM15.0001 13C15.0001 14.1046 14.1047 15 13.0001 15L3.00012 15C1.89555 15 1.00012 14.1046 1.00012 13L3.00012 13L13.0001 13L15.0001 13Z" fill="#2D2D2D" mask="url(#path-1-inside-1_539_19138)"/>
<path d="M7.99956 10.2034V2.11833M7.99956 10.2034L11.3231 6.87995M7.99956 10.2034L4.67606 6.87995" stroke="#2D2D2D"/>
</svg>
