<svg width="16" height="16" viewBox="0 0 16 16" fill="none" xmlns="http://www.w3.org/2000/svg">
<path d="M7.562 4.27419L8 5.06972L8.438 4.27419C8.66826 3.85597 9.00404 3.50656 9.41116 3.261C9.81403 3.018 10.2728 2.88513 10.7419 2.87521C11.5007 2.91227 12.2155 3.24771 12.7316 3.81039C13.2511 4.37683 13.5269 5.12747 13.4979 5.8984L13.4976 5.90778V5.91716C13.4976 6.63934 13.2045 7.43126 12.7112 8.24231C12.221 9.0482 11.5571 9.83375 10.8731 10.533C9.50989 11.9268 8.11499 12.9295 8 13.0114C7.876 12.9225 6.48571 11.9218 5.12686 10.5326C4.44288 9.83341 3.77901 9.04796 3.28882 8.24215C2.7955 7.43119 2.50242 6.63934 2.50242 5.91716V5.90778L2.50207 5.8984C2.47313 5.12748 2.74893 4.37683 3.26844 3.81039C3.7845 3.24771 4.49925 2.91227 5.25807 2.87521C5.72725 2.88513 6.18597 3.018 6.58884 3.261C6.99596 3.50656 7.33174 3.85597 7.562 4.27419Z" stroke="#2D2D2D"/>
</svg>
