<svg width="16" height="16" viewBox="0 0 16 16" fill="none" xmlns="http://www.w3.org/2000/svg">
<mask id="path-1-inside-1_539_19151" fill="white">
<path d="M8 14H3C2.44772 14 2 13.5523 2 13L2 3C2 2.44771 2.44772 2 3 2H8L8 14Z"/>
</mask>
<path d="M8 15H3C1.89543 15 1 14.1046 1 13H3H8V15ZM1 3C1 1.89543 1.89543 1 3 1H8V3H3H1ZM8 2L8 14L8 2ZM3 15C1.89543 15 1 14.1046 1 13L1 3C1 1.89543 1.89543 1 3 1V3L3 13V15Z" fill="#2D2D2D" mask="url(#path-1-inside-1_539_19151)"/>
<line x1="5" y1="8" x2="13" y2="8" stroke="#2D2D2D"/>
<path d="M10.5 5.5L13 8L10.5 10.5" stroke="#2D2D2D" stroke-width="0.95"/>
</svg>
