<svg width="24" height="24" viewBox="0 0 16 16" fill="none" xmlns="http://www.w3.org/2000/svg">
<mask id="path-1-inside-1_539_19144" fill="white">
<path d="M8 2H13C13.5523 2 14 2.44772 14 3V13C14 13.5523 13.5523 14 13 14H8V2Z"/>
</mask>
<path d="M8 1H13C14.1046 1 15 1.89543 15 3H13H8V1ZM15 13C15 14.1046 14.1046 15 13 15H8V13H13H15ZM8 14V2V14ZM13 1C14.1046 1 15 1.89543 15 3V13C15 14.1046 14.1046 15 13 15V13V3V1Z" fill="#2D2D2D" mask="url(#path-1-inside-1_539_19144)"/>
<line x1="2" y1="8" x2="10" y2="8" stroke="#2D2D2D"/>
<path d="M7.5 5.5L10 8L7.5 10.5" stroke="#2D2D2D" stroke-width="0.95"/>
</svg>
