<svg width="16" height="16" viewBox="0 0 16 16" fill="none" xmlns="http://www.w3.org/2000/svg">
<mask id="path-1-inside-1_539_19197" fill="white">
<path fill-rule="evenodd" clip-rule="evenodd" d="M3.34903 2.89776C3.34562 2.93137 3.34387 2.96548 3.34387 3V6.63172V12.7073C3.34387 13.5226 4.26729 13.9953 4.9287 13.5184L8.55724 10.9023L12.1858 13.5184C12.8472 13.9953 13.7706 13.5226 13.7706 12.7073V6.63172V3C13.7706 2.50813 13.4155 2.09921 12.9477 2.01563C12.9066 2.00829 12.8647 2.00346 12.8221 2.0013C12.805 2.00044 12.7879 2 12.7706 2H4.34387C4.34387 2 4.34387 2 4.34387 2C4.24018 2 4.14017 2.01578 4.04613 2.04508C3.76448 2.1328 3.53626 2.34169 3.42246 2.61076C3.3845 2.70048 3.35928 2.79691 3.34903 2.89776Z"/>
</mask>
<path d="M3.34903 2.89776L1.9562 2.75631L3.34903 2.89776ZM4.9287 13.5184L5.74746 14.654H5.74746L4.9287 13.5184ZM8.55724 10.9023L9.376 9.76668L8.55724 9.17637L7.73848 9.76668L8.55724 10.9023ZM12.1858 13.5184L11.367 14.654L12.1858 13.5184ZM12.9477 2.01563L12.7014 3.3938L12.7014 3.3938L12.9477 2.01563ZM12.8221 2.0013L12.8929 0.603096L12.8221 2.0013ZM4.04613 2.04508L4.46245 3.38174L4.04613 2.04508ZM3.42246 2.61076L2.13305 2.06538V2.06538L3.42246 2.61076ZM4.74387 3C4.74387 3.0128 4.74322 3.0259 4.74187 3.03921L1.9562 2.75631C1.94802 2.83684 1.94387 2.91816 1.94387 3H4.74387ZM1.94387 3V6.63172H4.74387V3H1.94387ZM4.74387 12.7073V6.63172H1.94387V12.7073H4.74387ZM4.10994 12.3828C4.3745 12.192 4.74387 12.3811 4.74387 12.7073H1.94387C1.94387 14.6642 4.16008 15.7985 5.74746 14.654L4.10994 12.3828ZM7.73848 9.76668L4.10994 12.3828L5.74746 14.654L9.376 12.0379L7.73848 9.76668ZM7.73848 12.0379L11.367 14.654L13.0045 12.3828L9.376 9.76668L7.73848 12.0379ZM11.367 14.654C12.9544 15.7985 15.1706 14.6642 15.1706 12.7073H12.3706C12.3706 12.3811 12.74 12.192 13.0045 12.3828L11.367 14.654ZM15.1706 12.7073V6.63172H12.3706V12.7073H15.1706ZM15.1706 6.63172V3H12.3706V6.63172H15.1706ZM12.7014 3.3938C12.5134 3.3602 12.3706 3.19822 12.3706 3H15.1706C15.1706 1.81805 14.3176 0.838216 13.1939 0.637449L12.7014 3.3938ZM12.7512 3.39951C12.7348 3.39867 12.7181 3.39678 12.7014 3.3938L13.1939 0.637449C13.0951 0.619798 12.9946 0.60825 12.8929 0.603096L12.7512 3.39951ZM12.7706 3.4C12.7642 3.4 12.7577 3.39984 12.7512 3.39951L12.8929 0.603096C12.8523 0.601036 12.8115 0.6 12.7706 0.6V3.4ZM12.7706 0.6H4.34387V3.4H12.7706V0.6ZM4.34387 0.6C4.34387 0.6 4.34387 0.6 4.34387 0.6C4.34387 0.6 4.34387 0.6 4.34387 0.6C4.34387 0.6 4.34387 0.6 4.34387 0.6C4.34387 0.6 4.34387 0.6 4.34387 0.6C4.34387 0.6 4.34387 0.6 4.34387 0.6C4.34387 0.6 4.34387 0.6 4.34387 0.6H4.34387H4.34387H4.34387H4.34387C4.34387 0.6 4.34387 0.6 4.34387 0.6C4.34387 0.6 4.34387 0.6 4.34387 0.6C4.34387 0.6 4.34387 0.6 4.34387 0.6C4.34387 0.6 4.34387 0.6 4.34387 0.6C4.34387 0.6 4.34387 0.6 4.34387 0.6C4.34387 0.6 4.34387 0.6 4.34387 0.6V3.4C4.34387 3.4 4.34387 3.4 4.34387 3.4C4.34387 3.4 4.34387 3.4 4.34387 3.4C4.34387 3.4 4.34387 3.4 4.34387 3.4C4.34387 3.4 4.34387 3.4 4.34387 3.4C4.34387 3.4 4.34387 3.4 4.34387 3.4C4.34387 3.4 4.34387 3.4 4.34387 3.4H4.34387H4.34387H4.34387H4.34387C4.34387 3.4 4.34387 3.4 4.34387 3.4C4.34387 3.4 4.34387 3.4 4.34387 3.4C4.34387 3.4 4.34387 3.4 4.34387 3.4C4.34387 3.4 4.34387 3.4 4.34387 3.4C4.34387 3.4 4.34387 3.4 4.34387 3.4C4.34387 3.4 4.34387 3.4 4.34387 3.4V0.6ZM4.46245 3.38174C4.42326 3.39395 4.38296 3.4 4.34387 3.4V0.6C4.0974 0.6 3.85709 0.637616 3.6298 0.708411L4.46245 3.38174ZM4.71186 3.15613C4.6665 3.26338 4.5772 3.346 4.46245 3.38174L3.6298 0.708411C2.95176 0.919598 2.40603 1.41999 2.13305 2.06538L4.71186 3.15613ZM4.74187 3.03921C4.73777 3.07956 4.72751 3.11914 4.71186 3.15613L2.13305 2.06538C2.0415 2.28183 1.98078 2.51425 1.9562 2.75631L4.74187 3.03921Z" fill="#2D2D2D" mask="url(#path-1-inside-1_539_19197)"/>
</svg>
