<svg width="24" height="24" viewBox="0 0 14 14" fill="none" xmlns="http://www.w3.org/2000/svg">
<path d="M10.1663 7.99967C10.1663 9.19633 9.19633 10.1663 7.99967 10.1663C6.80302 10.1663 5.83301 9.19633 5.83301 7.99967C5.83301 6.80302 6.80302 5.83301 7.99967 5.83301C9.19633 5.83301 10.1663 6.80302 10.1663 7.99967Z" stroke="currentColor" stroke-linecap="round" stroke-linejoin="round"/>
<path d="M10.6661 12.3722L10.6662 12.3722C10.8639 12.5496 11.1657 12.5414 11.3536 12.3536L12.3536 11.3536C12.5376 11.1695 12.5497 10.8752 12.3814 10.6767L11.8366 10.0341L12.1737 9.22023L13.1259 8.97249C13.3462 8.91517 13.4999 8.71627 13.5 8.48863L13.5 7.50003C13.5 7.27133 13.3449 7.07178 13.1232 7.01542L12.1773 6.77488L11.8409 5.96258L12.3818 5.32283C12.5497 5.12431 12.5374 4.83028 12.3536 4.64645L11.3536 3.64645C11.169 3.4619 10.8736 3.45034 10.6752 3.61989L10.0399 4.16281L9.19926 3.81711L8.95124 2.87297C8.89351 2.65321 8.69487 2.5 8.46765 2.5H7.4905C7.26337 2.5 7.06477 2.65309 7.00696 2.87275L6.75363 3.83539L5.94874 4.17468L5.3323 3.6264C5.13444 3.45041 4.83369 3.45921 4.64645 3.64645L3.64645 4.64645C3.46527 4.82762 3.45037 5.11643 3.61194 5.31529L4.15207 5.98009L3.8206 6.79505L2.88636 7.01308C2.66008 7.0659 2.5 7.26764 2.5 7.5V8.5C2.5 8.72543 2.65085 8.92298 2.86832 8.98235L3.83428 9.24605L4.17442 10.053L3.62677 10.6673C3.45042 10.8651 3.45905 11.1662 3.64645 11.3536L4.64645 12.3536C4.82782 12.5349 5.11703 12.5496 5.31587 12.3876L5.98067 11.8458L6.77538 12.1727L7.01522 13.1224C7.07129 13.3444 7.27101 13.5 7.5 13.5H8.5C8.72886 13.5 8.92851 13.3446 8.9847 13.1228L9.22535 12.1726L10.0466 11.8325C10.1292 11.9017 10.224 11.9831 10.3183 12.0652C10.4121 12.1468 10.4992 12.2237 10.5629 12.2803L10.6386 12.3476L10.6592 12.366L10.6645 12.3707L10.6658 12.3719L10.6661 12.3722Z" stroke="currentColor" stroke-linecap="round" stroke-linejoin="round"/>
</svg>
