<svg width="17" height="16" viewBox="0 0 17 16" fill="none" xmlns="http://www.w3.org/2000/svg">
<mask id="mask0_539_19209" style="mask-type:alpha" maskUnits="userSpaceOnUse" x="0" y="0" width="17" height="16">
<rect x="0.601562" width="16" height="16" fill="#D9D9D9"/>
</mask>
<g mask="url(#mask0_539_19209)">
<path d="M5.26819 14C4.90152 14 4.58763 13.8694 4.32652 13.6083C4.06541 13.3472 3.93486 13.0333 3.93486 12.6667V4H3.26819V2.66667H6.60152V2H10.6015V2.66667H13.9349V4H13.2682V12.6667C13.2682 13.0333 13.1376 13.3472 12.8765 13.6083C12.6154 13.8694 12.3015 14 11.9349 14H5.26819ZM11.9349 4H5.26819V12.6667H11.9349V4ZM6.60152 11.3333H7.93486V5.33333H6.60152V11.3333ZM9.26819 11.3333H10.6015V5.33333H9.26819V11.3333Z" fill="#1C1B1F"/>
</g>
</svg>
