<svg width="24" height="24" viewBox="0 0 24 24" fill="none" xmlns="http://www.w3.org/2000/svg">
<path d="M18.975 15.6874C18.975 16.1844 19.378 16.5874 19.875 16.5874C20.3721 16.5874 20.775 16.1844 20.775 15.6874H18.975ZM3.22505 15.6874C3.22505 16.1844 3.62799 16.5874 4.12505 16.5874C4.6221 16.5874 5.02505 16.1844 5.02505 15.6874H3.22505ZM6.0938 5.89988H17.9063V4.09988H6.0938V5.89988ZM18.975 6.90372V15.6874H20.775V6.90372H18.975ZM5.02505 15.6874V6.90372H3.22505V15.6874H5.02505ZM17.9063 5.89988C18.5252 5.89988 18.975 6.37752 18.975 6.90372H20.775C20.775 5.327 19.462 4.09988 17.9063 4.09988V5.89988ZM6.0938 4.09988C4.53811 4.09988 3.22505 5.327 3.22505 6.90372H5.02505C5.02505 6.37752 5.47486 5.89988 6.0938 5.89988V4.09988ZM4.12505 17.1499H19.875V15.3499H4.12505V17.1499ZM20.1 17.3749V18.4999H21.9V17.3749H20.1ZM19.875 18.7249H4.12505V20.5249H19.875V18.7249ZM3.90005 18.4999V17.3749H2.10005V18.4999H3.90005ZM4.12505 18.7249C4.00078 18.7249 3.90005 18.6241 3.90005 18.4999H2.10005C2.10005 19.6183 3.00667 20.5249 4.12505 20.5249V18.7249ZM20.1 18.4999C20.1 18.6241 19.9993 18.7249 19.875 18.7249V20.5249C20.9934 20.5249 21.9 19.6183 21.9 18.4999H20.1ZM19.875 17.1499C19.9993 17.1499 20.1 17.2506 20.1 17.3749H21.9C21.9 16.2565 20.9934 15.3499 19.875 15.3499V17.1499ZM4.12505 15.3499C3.00667 15.3499 2.10005 16.2565 2.10005 17.3749H3.90005C3.90005 17.2506 4.00078 17.1499 4.12505 17.1499V15.3499Z" fill="currentColor"/>
</svg>
