<svg width="16" height="17" viewBox="0 0 16 17" fill="none" xmlns="http://www.w3.org/2000/svg">
<path d="M8.5 2.13135L14 5.31556V11.684L8.5 14.8682L3 11.684V5.31556L8.5 2.13135ZM8.5 10.2366C8.96064 10.2366 9.40241 10.0536 9.72813 9.7279C10.0539 9.40218 10.2368 8.96041 10.2368 8.49977C10.2368 8.03913 10.0539 7.59736 9.72813 7.27164C9.40241 6.94591 8.96064 6.76293 8.5 6.76293C8.03936 6.76293 7.59759 6.94591 7.27187 7.27164C6.94615 7.59736 6.76316 8.03913 6.76316 8.49977C6.76316 8.96041 6.94615 9.40218 7.27187 9.7279C7.59759 10.0536 8.03936 10.2366 8.5 10.2366Z" fill="black" fill-opacity="0.45"/>
</svg>
