<svg width="22" height="16" viewBox="0 0 22 16" fill="none" xmlns="http://www.w3.org/2000/svg">
<path d="M7.6667 15.5L7.6667 0.5M1.00003 11.5L1.00003 4.5C1.00003 3.09987 1.00003 2.3998 1.36334 1.86502C1.68292 1.39462 2.19285 1.01217 2.82006 0.772484C3.5331 0.5 4.46652 0.5 6.33336 0.5L15.6667 0.5C17.5335 0.5 18.467 0.5 19.18 0.772484C19.8072 1.01217 20.3171 1.39462 20.6367 1.86502C21 2.3998 21 3.09987 21 4.5L21 11.5C21 12.9001 21 13.6002 20.6367 14.135C20.3171 14.6054 19.8072 14.9878 19.18 15.2275C18.467 15.5 17.5335 15.5 15.6667 15.5L6.33336 15.5C4.46652 15.5 3.5331 15.5 2.82006 15.2275C2.19286 14.9878 1.68292 14.6054 1.36334 14.135C1.00003 13.6002 1.00003 12.9001 1.00003 11.5Z" stroke="black" stroke-opacity="0.45" stroke-linecap="round" stroke-linejoin="round"/>
</svg>
