<svg width="24" height="24" viewBox="0 0 24 24" fill="none" xmlns="http://www.w3.org/2000/svg">
<path d="M10.4779 6.85208L9.43414 5.80951C8.38387 4.76041 8.75768 3 10.243 3C12.2431 3 14.0538 3.8098 15.3646 5.11906C16.6753 6.42832 17.486 8.23705 17.486 10.2349C17.486 10.6022 17.4586 10.9631 17.4057 11.3157C17.276 12.181 17.4554 13.0991 18.0826 13.71L20.3272 15.896C21.2164 16.762 21.2254 18.1868 20.3473 19.064L19.0618 20.348C18.1915 21.2173 16.7804 21.2173 15.9101 20.348L13.6159 18.0564C13.0113 17.4525 12.117 17.2775 11.2705 17.3976C10.9348 17.4452 10.5918 17.4698 10.243 17.4698C8.24289 17.4698 6.43214 16.66 5.12142 15.3508C3.8107 14.0415 3 12.2328 3 10.2349C3 8.75126 4.76237 8.37787 5.81265 9.42697L6.85637 10.4695C7.7267 11.3389 9.13778 11.3389 10.0081 10.4695L10.4779 10.0003C11.3482 9.13094 11.3482 7.72144 10.4779 6.85208Z" stroke="black" stroke-opacity="0.85" stroke-width="2" stroke-linecap="round"/>
</svg>
