<svg width="24" height="24" viewBox="0 0 24 24" fill="none" xmlns="http://www.w3.org/2000/svg">
<path d="M11.315 3.78647C11.5351 3.34062 11.6452 3.1177 11.7945 3.04648C11.9245 2.98451 12.0755 2.98451 12.2055 3.04648C12.3548 3.1177 12.4649 3.34062 12.685 3.78647L14.7729 8.01632C14.8378 8.14794 14.8703 8.21375 14.9178 8.26485C14.9598 8.31009 15.0102 8.34675 15.0662 8.37279C15.1295 8.4022 15.2021 8.41282 15.3473 8.43404L20.0177 9.11668C20.5095 9.18857 20.7554 9.22451 20.8692 9.34463C20.9682 9.44914 21.0147 9.59275 20.9959 9.73547C20.9742 9.89952 20.7962 10.0729 20.4401 10.4197L17.0619 13.7101C16.9566 13.8126 16.904 13.8639 16.87 13.925C16.8399 13.979 16.8206 14.0383 16.8132 14.0997C16.8048 14.1691 16.8172 14.2415 16.842 14.3864L17.6391 19.0339C17.7232 19.5241 17.7653 19.7692 17.6863 19.9146C17.6175 20.0412 17.4953 20.1299 17.3538 20.1562C17.191 20.1863 16.9709 20.0706 16.5307 19.8391L12.3555 17.6434C12.2254 17.575 12.1604 17.5408 12.0919 17.5273C12.0312 17.5154 11.9688 17.5154 11.9081 17.5273C11.8396 17.5408 11.7745 17.575 11.6445 17.6434L7.46926 19.8391C7.02908 20.0706 6.80899 20.1863 6.64625 20.1562C6.50465 20.1299 6.38248 20.0412 6.31374 19.9146C6.23474 19.7692 6.27678 19.5241 6.36085 19.0339L7.15795 14.3864C7.1828 14.2415 7.19523 14.1691 7.18682 14.0997C7.17937 14.0383 7.16008 13.979 7.12999 13.925C7.09602 13.8639 7.04336 13.8126 6.93805 13.7101L3.55985 10.4197C3.2038 10.0729 3.02578 9.89952 3.00411 9.73547C2.98526 9.59275 3.03183 9.44914 3.13084 9.34463C3.24464 9.22451 3.49054 9.18857 3.98235 9.11668L8.65266 8.43404C8.7979 8.41282 8.87052 8.4022 8.93377 8.37279C8.98976 8.34675 9.04018 8.31009 9.08221 8.26485C9.12969 8.21375 9.16217 8.14794 9.22714 8.01632L11.315 3.78647Z" stroke="currentColor" stroke-width="1.8" stroke-linecap="round" stroke-linejoin="round"/>
</svg>
