<svg width="16" height="16" viewBox="0 0 16 16" fill="none" xmlns="http://www.w3.org/2000/svg">
<path d="M8.00025 5.59995V7.99995L9.03941 8.59995M2.15582 9.36359C2.05401 8.92551 2.00018 8.46902 2.00018 7.99995C2.00018 7.53089 2.05401 7.0744 2.15582 6.63632M6.90927 2.09889C7.26303 2.03391 7.62764 1.99995 8.00018 1.99995C11.3139 1.99995 14.0002 4.68625 14.0002 7.99995C14.0002 11.3137 11.3139 14 8.00018 14C7.62764 14 7.26303 13.966 6.90927 13.901M5.00018 2.80265C4.1818 3.27606 3.48561 3.93722 2.97051 4.72723M2.97051 11.2727C3.48561 12.0627 4.1818 12.7239 5.00018 13.1973" stroke="black" stroke-opacity="0.85" stroke-linecap="round"/>
</svg>
