<svg width="14" height="14" viewBox="0 0 14 14" fill="none" xmlns="http://www.w3.org/2000/svg">
<g id="live area">
<path id="Icon" d="M6.5 9.52871C6.5 9.80485 6.72386 10.0287 7 10.0287C7.27614 10.0287 7.5 9.80485 7.5 9.52871L6.5 9.52871ZM7.5 2.19537C7.5 1.91923 7.27614 1.69537 7 1.69537C6.72386 1.69537 6.5 1.91923 6.5 2.19537L7.5 2.19537ZM9.31311 3.88226C9.50838 4.07752 9.82496 4.07752 10.0202 3.88226C10.2155 3.687 10.2155 3.37042 10.0202 3.17515L9.31311 3.88226ZM7.4714 1.33345L7.11785 1.687L7.4714 1.33345ZM6.5286 1.33345L6.88215 1.687L6.88215 1.687L6.5286 1.33345ZM3.97978 3.17515C3.78452 3.37042 3.78452 3.687 3.97978 3.88226C4.17504 4.07752 4.49162 4.07752 4.68689 3.88226L3.97978 3.17515ZM1.5 9.52871C1.5 9.25257 1.27614 9.02871 1 9.02871C0.723858 9.02871 0.5 9.25257 0.5 9.52871L1.5 9.52871ZM13.5 9.52871C13.5 9.25257 13.2761 9.02871 13 9.02871C12.7239 9.02871 12.5 9.25257 12.5 9.52871L13.5 9.52871ZM11.908 12.6441L11.681 12.1986L11.681 12.1986L11.908 12.6441ZM12.782 11.77L13.2275 11.997L12.782 11.77ZM1.21799 11.77L0.772484 11.997L1.21799 11.77ZM2.09202 12.6441L1.86502 13.0896L1.86502 13.0896L2.09202 12.6441ZM7.5 9.52871L7.5 2.19537L6.5 2.19537L6.5 9.52871L7.5 9.52871ZM10.0202 3.17515L7.82496 0.979892L7.11785 1.687L9.31311 3.88226L10.0202 3.17515ZM6.17504 0.979893L3.97978 3.17515L4.68689 3.88226L6.88215 1.687L6.17504 0.979893ZM7.82496 0.979892C7.36935 0.52428 6.63065 0.524281 6.17504 0.979893L6.88215 1.687C6.94724 1.62191 7.05276 1.62191 7.11785 1.687L7.82496 0.979892ZM0.5 9.52871L0.5 9.66204L1.5 9.66204L1.5 9.52871L0.5 9.52871ZM4.2 13.362L9.8 13.362L9.8 12.362L4.2 12.362L4.2 13.362ZM13.5 9.66204L13.5 9.52871L12.5 9.52871L12.5 9.66204L13.5 9.66204ZM9.8 13.362C10.3518 13.362 10.7957 13.3624 11.1543 13.3331C11.5187 13.3034 11.8388 13.2405 12.135 13.0896L11.681 12.1986C11.5493 12.2656 11.3755 12.3117 11.0729 12.3365C10.7645 12.3617 10.3683 12.362 9.8 12.362L9.8 13.362ZM12.5 9.66204C12.5 10.2303 12.4996 10.6265 12.4744 10.9349C12.4497 11.2375 12.4036 11.4114 12.3365 11.543L13.2275 11.997C13.3784 11.7009 13.4413 11.3808 13.4711 11.0164C13.5004 10.6578 13.5 10.2138 13.5 9.66204L12.5 9.66204ZM12.135 13.0896C12.6054 12.8499 12.9878 12.4674 13.2275 11.997L12.3365 11.543C12.1927 11.8253 11.9632 12.0547 11.681 12.1986L12.135 13.0896ZM0.5 9.66204C0.5 10.2138 0.499611 10.6578 0.528909 11.0164C0.558684 11.3808 0.62159 11.7009 0.772484 11.997L1.66349 11.543C1.5964 11.4114 1.55031 11.2375 1.52559 10.9349C1.50039 10.6265 1.5 10.2303 1.5 9.66204L0.5 9.66204ZM4.2 12.362C3.6317 12.362 3.23554 12.3617 2.92712 12.3365C2.62454 12.3117 2.45069 12.2656 2.31901 12.1986L1.86502 13.0896C2.16117 13.2405 2.48126 13.3034 2.84569 13.3331C3.20428 13.3624 3.6482 13.362 4.2 13.362L4.2 12.362ZM0.772484 11.997C1.01217 12.4674 1.39462 12.8499 1.86502 13.0896L2.31901 12.1986C2.03677 12.0547 1.8073 11.8253 1.66349 11.543L0.772484 11.997Z" fill="currentColor" fill-opacity="0.85"/>
</g>
</svg>
