<svg width="24" height="25" viewBox="0 0 24 25" fill="none" xmlns="http://www.w3.org/2000/svg">
<path d="M12.4211 14.8178V21.3424H4C3.99974 20.3141 4.23488 19.2994 4.68741 18.376C5.13994 17.4526 5.79784 16.6451 6.61071 16.0153C7.42358 15.3855 8.36983 14.9501 9.37697 14.7425C10.3841 14.535 11.4254 14.5607 12.4211 14.8178ZM10.7368 13.7635C7.94526 13.7635 5.68421 11.5024 5.68421 8.71083C5.68421 5.91926 7.94526 3.6582 10.7368 3.6582C13.5284 3.6582 15.7895 5.91926 15.7895 8.71083C15.7895 11.5024 13.5284 13.7635 10.7368 13.7635ZM15.7895 17.1319V14.6056H17.4737V17.1319H20V18.8161H17.4737V21.3424H15.7895V18.8161H13.2632V17.1319H15.7895Z" fill="black" fill-opacity="0.45"/>
</svg>
