<svg width="24" height="25" viewBox="0 0 24 25" fill="none" xmlns="http://www.w3.org/2000/svg">
<path d="M11.6829 14.3696V21.1459H4C3.99991 20.177 4.20601 19.2191 4.60461 18.3359C5.00322 17.4528 5.58519 16.6645 6.31188 16.0236C7.03856 15.3827 7.89332 14.9037 8.81935 14.6185C9.74539 14.3334 10.7215 14.2485 11.6829 14.3696ZM10.8292 13.4631C7.99936 13.4631 5.7073 11.171 5.7073 8.34115C5.7073 5.51129 7.99936 3.21924 10.8292 3.21924C13.6591 3.21924 15.9511 5.51129 15.9511 8.34115C15.9511 11.171 13.6591 13.4631 10.8292 13.4631ZM15.7744 19.3652L18.7921 16.3476L20 17.5546L15.7744 21.7802L12.7559 18.7617L13.9638 17.5546L15.7736 19.3652H15.7744Z" fill="black" fill-opacity="0.45"/>
</svg>
