<svg width="16" height="16" viewBox="0 0 16 16" fill="none" xmlns="http://www.w3.org/2000/svg">
<path d="M13 14H4V12.8571C4 12.0994 4.29632 11.3727 4.82376 10.8368C5.35121 10.301 6.06658 10 6.8125 10H10.1875C10.9334 10 11.6488 10.301 12.1762 10.8368C12.7037 11.3727 13 12.0994 13 12.8571V14ZM8.5 8.85714C8.05679 8.85714 7.61792 8.76846 7.20844 8.59616C6.79897 8.42386 6.42691 8.17131 6.11351 7.85294C5.80012 7.53457 5.55152 7.1566 5.38191 6.74063C5.2123 6.32466 5.125 5.87882 5.125 5.42857C5.125 4.97833 5.2123 4.53249 5.38191 4.11651C5.55152 3.70054 5.80012 3.32258 6.11351 3.00421C6.42691 2.68583 6.79897 2.43329 7.20844 2.26098C7.61792 2.08868 8.05679 2 8.5 2C9.39511 2 10.2536 2.36122 10.8865 3.00421C11.5194 3.64719 11.875 4.51926 11.875 5.42857C11.875 6.33789 11.5194 7.20996 10.8865 7.85294C10.2536 8.49592 9.39511 8.85714 8.5 8.85714Z" fill="black" fill-opacity="0.25"/>
</svg>
