<svg width="24" height="25" viewBox="0 0 24 25" fill="none" xmlns="http://www.w3.org/2000/svg">
<path d="M11.5228 14.3344V20.8572H5C5 19.1273 5.68722 17.4682 6.91048 16.2449C8.13375 15.0216 9.79285 14.3344 11.5228 14.3344ZM11.5228 13.5191C8.81992 13.5191 6.6307 11.3299 6.6307 8.62697C6.6307 5.92408 8.81992 3.73486 11.5228 3.73486C14.2257 3.73486 16.4149 5.92408 16.4149 8.62697C16.4149 11.3299 14.2257 13.5191 11.5228 13.5191ZM13.6386 18.2579C13.5353 17.8228 13.5353 17.3696 13.6386 16.9346L12.8298 16.4674L13.6452 15.0552L14.454 15.5224C14.7786 15.2149 15.1711 14.9881 15.5996 14.8603V13.9267H17.2303V14.8603C17.664 14.9891 18.0554 15.2191 18.3758 15.5224L19.1846 15.0552L20 16.4674L19.1912 16.9346C19.2944 17.3694 19.2944 17.8223 19.1912 18.2571L20 18.7243L19.1846 20.1364L18.3758 19.6693C18.0512 19.9767 17.6588 20.2035 17.2303 20.3313V21.2649H15.5996V20.3313C15.1711 20.2035 14.7786 19.9767 14.454 19.6693L13.6452 20.1364L12.8298 18.7243L13.6386 18.2579ZM16.4149 16.7805C16.1987 16.7805 15.9913 16.8664 15.8384 17.0193C15.6855 17.1722 15.5996 17.3796 15.5996 17.5958C15.5996 17.8121 15.6855 18.0195 15.8384 18.1724C15.9913 18.3253 16.1987 18.4112 16.4149 18.4112C16.6311 18.4112 16.8385 18.3253 16.9914 18.1724C17.1444 18.0195 17.2303 17.8121 17.2303 17.5958C17.2303 17.3796 17.1444 17.1722 16.9914 17.0193C16.8385 16.8664 16.6311 16.7805 16.4149 16.7805Z" fill="black" fill-opacity="0.45"/>
</svg>
