<svg width="16" height="16" viewBox="0 0 16 16" fill="none" xmlns="http://www.w3.org/2000/svg">
<path d="M11.9355 11.6214L12.4355 11.6259L11.9355 11.6214ZM3 3.9C2.72386 3.9 2.5 4.12386 2.5 4.4C2.5 4.67614 2.72386 4.9 3 4.9V3.9ZM12.6 4.9C12.8761 4.9 13.1 4.67614 13.1 4.4C13.1 4.12386 12.8761 3.9 12.6 3.9V4.9ZM7.1 6.8C7.1 6.52386 6.87614 6.3 6.6 6.3C6.32386 6.3 6.1 6.52386 6.1 6.8H7.1ZM6.1 11.6C6.1 11.8761 6.32386 12.1 6.6 12.1C6.87614 12.1 7.1 11.8761 7.1 11.6H6.1ZM9.5 6.8C9.5 6.52386 9.27614 6.3 9 6.3C8.72386 6.3 8.5 6.52386 8.5 6.8H9.5ZM8.5 11.6C8.5 11.8761 8.72386 12.1 9 12.1C9.27614 12.1 9.5 11.8761 9.5 11.6H8.5ZM11.5 4.39554L11.4355 11.617L12.4355 11.6259L12.5 4.40446L11.5 4.39554ZM9.53562 13.5H6V14.5H9.53562V13.5ZM3.1 4.4V11.6H4.1V4.4H3.1ZM3 4.9H3.6V3.9H3V4.9ZM3.6 4.9H5.4V3.9H3.6V4.9ZM5.4 4.9H10.2V3.9H5.4V4.9ZM10.2 4.9H12V3.9H10.2V4.9ZM12 4.9H12.6V3.9H12V4.9ZM5.9 4.13333C5.9 3.285 6.69367 2.5 7.8 2.5V1.5C6.25536 1.5 4.9 2.62525 4.9 4.13333H5.9ZM7.8 2.5C8.90633 2.5 9.7 3.285 9.7 4.13333H10.7C10.7 2.62525 9.34463 1.5 7.8 1.5V2.5ZM4.9 4.13333V4.4H5.9V4.13333H4.9ZM9.7 4.13333V4.4H10.7V4.13333H9.7ZM6 13.5C4.95066 13.5 4.1 12.6493 4.1 11.6H3.1C3.1 13.2016 4.39837 14.5 6 14.5V13.5ZM11.4355 11.617C11.4262 12.6596 10.5783 13.5 9.53562 13.5V14.5C11.1271 14.5 12.4213 13.2174 12.4355 11.6259L11.4355 11.617ZM6.1 6.8V11.6H7.1V6.8H6.1ZM8.5 6.8V11.6H9.5V6.8H8.5Z" fill="white"/>
</svg>
