<svg width="25" height="24" viewBox="0 0 25 24" fill="none" xmlns="http://www.w3.org/2000/svg">
<path d="M7.75001 4C5.672 4 3.76999 5.71099 3.43799 7.84399L3 11C3.873 10.418 4.872 10 6.00001 10C7.62501 10 17.375 10 19 10C20.103 10 21.077 10.41 21.938 10.969L21.5 7.875C21.165 5.726 19.297 4 17.219 4H7.75001ZM6.00001 12C4.067 12 2.5 13.567 2.5 15.5V16.5C2.5 18.433 4.067 20 6.00001 20H19C20.933 20 22.5 18.433 22.5 16.5V15.5C22.5 13.567 20.933 12 19 12H6.00001ZM6.50001 15C7.05201 15 7.50001 15.448 7.50001 16C7.50001 16.552 7.05201 17 6.50001 17C5.94801 17 5.5 16.552 5.5 16C5.5 15.448 5.94801 15 6.50001 15ZM9.50001 15C10.052 15 10.5 15.448 10.5 16C10.5 16.552 10.052 17 9.50001 17C8.94801 17 8.50001 16.552 8.50001 16C8.50001 15.448 8.94801 15 9.50001 15Z" fill="#888888"/>
</svg>
