<svg width="12" height="12" viewBox="0 0 12 12" fill="none" xmlns="http://www.w3.org/2000/svg">
<path d="M9 9.9375H3V9.1875C3 8.69022 3.19754 8.21331 3.54917 7.86168C3.90081 7.51004 4.37772 7.3125 4.875 7.3125H7.125C7.62228 7.3125 8.09919 7.51004 8.45083 7.86168C8.80246 8.21331 9 8.69022 9 9.1875V9.9375ZM6 6.5625C5.70453 6.5625 5.41194 6.5043 5.13896 6.39123C4.86598 6.27816 4.61794 6.11242 4.40901 5.90349C4.20008 5.69456 4.03434 5.44652 3.92127 5.17354C3.8082 4.90056 3.75 4.60797 3.75 4.3125C3.75 4.01703 3.8082 3.72444 3.92127 3.45146C4.03434 3.17848 4.20008 2.93044 4.40901 2.72151C4.61794 2.51258 4.86598 2.34684 5.13896 2.23377C5.41194 2.1207 5.70453 2.0625 6 2.0625C6.59674 2.0625 7.16903 2.29955 7.59099 2.72151C8.01295 3.14347 8.25 3.71576 8.25 4.3125C8.25 4.90924 8.01295 5.48153 7.59099 5.90349C7.16903 6.32545 6.59674 6.5625 6 6.5625Z" fill="black" fill-opacity="0.45"/>
</svg>
