<svg xmlns="http://www.w3.org/2000/svg" xmlns:xlink="http://www.w3.org/1999/xlink" width="1518" height="792.553" viewBox="0 0 1518 792.553"><defs><filter id="a" x="180.919" y="0" width="1337.081" height="705.102" filterUnits="userSpaceOnUse"><feOffset dy="3" input="SourceAlpha"/><feGaussianBlur stdDeviation="3" result="b"/><feFlood flood-opacity="0.471"/><feComposite operator="in" in2="b"/><feComposite in="SourceGraphic"/></filter><filter id="c" x="0" y="202.101" width="347.832" height="309.215" filterUnits="userSpaceOnUse"><feOffset dy="3" input="SourceAlpha"/><feGaussianBlur stdDeviation="3" result="d"/><feFlood flood-opacity="0.31"/><feComposite operator="in" in2="d"/><feComposite in="SourceGraphic"/></filter><filter id="e" x="195.807" y="357.222" width="137.133" height="154.093" filterUnits="userSpaceOnUse"><feOffset dy="3" input="SourceAlpha"/><feGaussianBlur stdDeviation="3" result="f"/><feFlood flood-opacity="0.31"/><feComposite operator="in" in2="f"/><feComposite in="SourceGraphic"/></filter><filter id="g" x="356.306" y="228.575" width="156.99" height="295.978" filterUnits="userSpaceOnUse"><feOffset dy="3" input="SourceAlpha"/><feGaussianBlur stdDeviation="3" result="h"/><feFlood flood-opacity="0.31"/><feComposite operator="in" in2="h"/><feComposite in="SourceGraphic"/></filter><filter id="i" x="419.182" y="202.101" width="273.164" height="226.484" filterUnits="userSpaceOnUse"><feOffset dy="3" input="SourceAlpha"/><feGaussianBlur stdDeviation="3" result="j"/><feFlood flood-opacity="0.31"/><feComposite operator="in" in2="j"/><feComposite in="SourceGraphic"/></filter><filter id="k" x="682.268" y="202.101" width="421.731" height="312.524" filterUnits="userSpaceOnUse"><feOffset dy="3" input="SourceAlpha"/><feGaussianBlur stdDeviation="3" result="l"/><feFlood flood-opacity="0.31"/><feComposite operator="in" in2="l"/><feComposite in="SourceGraphic"/></filter><filter id="m" x="0" y="506.553" width="1396" height="286" filterUnits="userSpaceOnUse"><feOffset dy="3" input="SourceAlpha"/><feGaussianBlur stdDeviation="3" result="n"/><feFlood flood-opacity="0.278"/><feComposite operator="in" in2="n"/><feComposite in="SourceGraphic"/></filter></defs><g transform="translate(2389.472 588.419)"><g transform="translate(-3316 -1121)"><g transform="translate(1116.447 538.581)"><g transform="matrix(1, 0, 0, 1, -189.92, -6)" filter="url(#a)"><path d="M849.946,687.1l0-.009c87.762-31.974,160.42-74.031,210.119-121.624,51.343-49.167,77.956-104.253,76.961-159.3-1.59-87.975-71.649-170.07-197.271-231.162C814.424,114.055,647.3,80.489,469.156,80.489c-7.928,0-15.981.068-23.934.2C281.308,83.455,123.192,115.008,0,169.538c31.6-24.465,69.071-47.095,111.368-67.27,42.424-20.236,89.572-37.94,140.136-52.62A1218.605,1218.605,0,0,1,414.685,14.641,1420.747,1420.747,0,0,1,595.187.209C603.424.07,611.771,0,620,0,714.2,0,805.41,8.98,891.1,26.689c82.983,17.15,157.488,41.761,221.444,73.15,31.569,15.494,60.259,32.57,85.271,50.754,25.263,18.366,47.018,38.041,64.662,58.477,17.97,20.814,31.873,42.651,41.322,64.9a187.274,187.274,0,0,1,15.25,70.032c.683,37.783-10.52,75.18-33.3,111.154-22.033,34.8-54.562,67.79-96.685,98.061-41.6,29.894-91.724,56.551-148.986,79.231C982.237,655.363,918.266,673.75,849.946,687.1Z" transform="translate(189.92 6)" fill="#f30606"/></g></g><g transform="matrix(1, 0, 0, 1, 926.53, 532.58)" filter="url(#c)"><path d="M1081.994,324s-123.27,66.186-148.916,138.989,46.329,152.226,46.329,152.226h142.3s-70.322-59.566-39.712-132.37S1257.386,324,1257.386,324Z" transform="translate(-918.55 -115.9)" fill="#293078"/></g><g transform="matrix(1, 0, 0, 1, 926.53, 532.58)" filter="url(#e)"><path d="M968,353.333V489.427h100.52l18.613-136.093Z" transform="translate(-763.19 9.89)" fill="#293078"/></g><g transform="matrix(1, 0, 0, 1, 926.53, 532.58)" filter="url(#g)"><path d="M1029.117,333.333,999.333,611.311h105.9l33.093-277.978Z" transform="translate(-634.03 -98.76)" fill="#293078"/></g><g transform="matrix(1, 0, 0, 1, 926.53, 532.58)" filter="url(#i)"><path d="M1018,324h172.081s89.351,21.15,82.732,78.559-96.276,129.925-96.276,129.925H1018s115.823-77.8,115.823-129.925S1018,324,1018,324Z" transform="translate(-589.82 -115.9)" fill="#293078"/></g><g transform="matrix(1, 0, 0, 1, 926.53, 532.58)" filter="url(#k)"><path d="M1101.3,324,1074,618.524h119.135l19.855-195.247,62.876,195.247h145.606L1477.73,324H1351.977L1322.2,512.628,1275.865,324Z" transform="translate(-382.73 -115.9)" fill="#293078"/></g><g transform="matrix(1, 0, 0, 1, 926.53, 532.58)" filter="url(#m)"><text transform="translate(9 619.55)" fill="#087298" font-size="114" font-family="Pretendard-ExtraBold, Pretendard" font-weight="800" letter-spacing="0.044em"><tspan x="0" y="0">G</tspan><tspan y="0" fill="#000">lobal </tspan><tspan y="0">PCB</tspan><tspan y="0" xml:space="preserve" fill="#000"> for </tspan><tspan y="0">N</tspan><tspan y="0" fill="#000">etwork</tspan><tspan fill="#000"><tspan x="0" y="134"></tspan></tspan></text></g></g></g></svg>